<svg width="220" height="80" viewBox="0 0 220 80" fill="none" xmlns="http://www.w3.org/2000/svg">
<path d="M6.90675 22.1287L6.34499 20.5234L5.81156 22.2892H6.90675V22.1287Z" fill="black"/>
<path d="M6.90847 56.8839H3.89669V67.4457H6.90847V56.8839Z" fill="black"/>
<path d="M3.89669 29.6126H6.90847V24.0603H5.27984L3.89669 28.6684V29.6126Z" fill="black"/>
<path d="M6.90847 31.3828H3.89669V43.0258H6.90847V31.3828Z" fill="black"/>
<path d="M6.90847 69.2165H3.89669V78.8812H6.90847V69.2165Z" fill="black"/>
<path d="M6.90847 44.7969H3.89669V55.1132H6.90847V44.7969Z" fill="black"/>
<path d="M12.888 75.443H8.67716V78.8755H12.888V75.443Z" fill="black"/>
<path d="M18.8078 75.443H14.6583V79.7631H18.8078V75.443Z" fill="black"/>
<path d="M18.8078 69.3482H14.6583V73.6777H18.8078V69.3482Z" fill="black"/>
<path d="M12.888 69.3482H8.67716V73.6777H12.888V69.3482Z" fill="black"/>
<path d="M13.1361 17.0302C13.195 16.9129 13.2854 16.8144 13.3971 16.7455C13.5088 16.6767 13.6374 16.6402 13.7686 16.6402C13.8999 16.6402 14.0285 16.6767 14.1402 16.7455C14.2519 16.8144 14.3422 16.9129 14.4012 17.0302L17.0731 22.2898H18.409L17.734 21.6288C17.6012 21.4961 17.5265 21.3161 17.5263 21.1284V12.4079L16.5822 13.966C16.5077 14.0891 16.3967 14.1858 16.2645 14.2426C16.1324 14.2994 15.9857 14.3135 15.8452 14.2827C15.7047 14.252 15.5773 14.1781 15.4809 14.0714C15.3845 13.9646 15.3239 13.8303 15.3076 13.6874L13.7686 0L12.225 13.6921C12.2087 13.8351 12.1481 13.9693 12.0517 14.0761C11.9553 14.1828 11.8279 14.2568 11.6873 14.2875C11.5468 14.3182 11.4002 14.3041 11.2681 14.2473C11.1359 14.1905 11.0248 14.0938 10.9504 13.9707L10.0063 12.4126V21.1331C10.0054 21.3193 9.93069 21.4976 9.79857 21.6288L9.12352 22.2898H10.4736L13.1361 17.0302Z" fill="black"/>
<path d="M9.99895 24.0603H8.67716V29.6079H9.99895V24.0603Z" fill="black"/>
<path d="M8.67716 44.7969V46.1L9.26724 44.7969H8.67716Z" fill="black"/>
<path d="M9.99895 31.3828H8.67716V36.3214H9.99895V31.3828Z" fill="black"/>
<path d="M18.8069 36.3214V35.8823C18.8022 35.8542 18.8022 35.8255 18.8069 35.7973V31.3828H17.5418V36.3214H18.8069Z" fill="black"/>
<path d="M18.8069 38.0915H17.5418V43.0301H18.8069V38.0915Z" fill="black"/>
<path d="M9.99895 38.0915H8.67716V43.0301H9.99895V38.0915Z" fill="black"/>
<path d="M18.2738 44.7969L18.8073 45.9725V44.7969H18.2738Z" fill="black"/>
<path d="M18.8069 24.0603H17.5418V29.6079H18.8069V24.0603Z" fill="black"/>
<path d="M13.7699 18.9096L12.0516 22.2901H15.4883L13.7699 18.9096Z" fill="black"/>
<path d="M16.1076 25.6845V24.0792H14.6583V24.9999C15.1842 25.1236 15.6781 25.3568 16.1076 25.6845Z" fill="black"/>
<path d="M12.8851 24.981V24.0792H11.4312V25.6845C11.8602 25.3491 12.3559 25.1093 12.8851 24.981Z" fill="black"/>
<path d="M20.6809 38.0882H20.577V43.0268H23.6454V41.0674L20.6809 38.0882Z" fill="black"/>
<path d="M23.6464 38.0882H23.1837L23.6464 38.5603V38.0882Z" fill="black"/>
<path d="M20.577 79.7638H23.6454V66.558L20.577 69.6364V79.7638Z" fill="black"/>
<path d="M21.422 36.3167H23.6454V31.3828H20.577V35.4715L21.422 36.3167Z" fill="black"/>
<path d="M20.577 62.3942V67.1298L23.6454 64.0514V59.3158L20.577 62.3942Z" fill="black"/>
<path d="M20.577 44.7969V59.8865L23.6454 56.8034V44.7969H20.577Z" fill="black"/>
<path d="M21.815 22.2889L21.1966 20.1596L20.4744 22.2889H21.815Z" fill="black"/>
<path d="M23.6454 29.6126V28.6023L22.3284 24.0603H20.577V29.6126H23.6454Z" fill="black"/>
<path d="M12.8713 26.3549C12.4402 26.5265 12.0715 26.8253 11.8143 27.2115C11.5571 27.5978 11.4236 28.0533 11.4315 28.5173V29.4616H12.8713V26.3549Z" fill="black"/>
<path d="M14.6673 26.3549V29.471H16.0835V28.5267C16.0538 28.0736 15.9079 27.6357 15.6598 27.2553C15.4118 26.8749 15.0699 26.5648 14.6673 26.3549Z" fill="black"/>
<path d="M12.186 31.3828H11.4401V32.8559L12.186 31.3828Z" fill="black"/>
<path d="M16.1097 31.3828H15.3591L16.1097 32.8559V31.3828Z" fill="black"/>
<path d="M16.1076 36.3173V36.1095L14.6583 33.2578V36.3173H16.1076Z" fill="black"/>
<path d="M12.8893 33.2533L11.4401 36.1098V36.3175H12.8893V33.2533Z" fill="black"/>
<path d="M11.4312 38.2898C11.5217 38.2184 11.6163 38.1522 11.7144 38.0915H11.4312V38.2898Z" fill="black"/>
<path d="M16.1066 38.0915H15.8233C15.9214 38.1522 16.016 38.2184 16.1066 38.2898V38.0915Z" fill="black"/>
<path d="M16.1058 41.1186C16.0751 40.6675 15.9286 40.232 15.6805 39.854C15.4325 39.4761 15.0912 39.1685 14.6896 38.9609V42.044H16.1058V41.1186Z" fill="black"/>
<path d="M11.4315 41.1186V42.0629H12.8713V38.9609C12.4402 39.1311 12.0713 39.4289 11.814 39.8145C11.5567 40.2001 11.4232 40.6551 11.4315 41.1186Z" fill="black"/>
<path d="M12.8719 46.5343V44.7969H11.9891L12.8719 46.5343Z" fill="black"/>
<path d="M14.6583 45.8497L15.1918 44.7969H14.6583V45.8497Z" fill="black"/>
<path d="M12.8738 51.6326V49.4513L10.5371 44.8527L8.67716 48.5165V51.3116C9.24502 50.9938 9.88645 50.831 10.5371 50.8394C11.3828 50.8347 12.2057 51.114 12.8738 51.6326Z" fill="black"/>
<path d="M14.6583 48.7667V51.3918C15.2842 50.9998 16.012 50.8014 16.7502 50.8215C17.4884 50.8417 18.2042 51.0795 18.8078 51.5051V49.1019L16.6457 44.8527L14.6583 48.7667Z" fill="black"/>
<path d="M11.4312 52.3035V55.1364H12.871V54.4848C12.9161 54.0115 12.7979 53.5369 12.5359 53.1401C12.274 52.7433 11.8841 52.448 11.4312 52.3035Z" fill="black"/>
<path d="M9.99895 55.113V52.2801C9.68018 52.3796 9.3918 52.5582 9.16067 52.7993C8.92955 53.0404 8.76321 53.336 8.67716 53.6588V55.0752L9.99895 55.113Z" fill="black"/>
<path d="M16.1058 52.3035C15.0956 52.5963 14.6896 53.3659 14.6896 54.4612V55.1128H16.1058V52.3035Z" fill="black"/>
<path d="M17.5418 52.3035V55.1364H18.8069V53.6019C18.7026 53.3068 18.5354 53.0379 18.317 52.8137C18.0986 52.5896 17.8341 52.4155 17.5418 52.3035Z" fill="black"/>
<path d="M9.99895 56.8839H8.67716V67.4457H9.99895V56.8839Z" fill="black"/>
<path d="M12.8663 56.8839H11.4312V67.4457H12.8663V56.8839Z" fill="black"/>
<path d="M16.107 67.9076V66.8783L15.0779 67.9076H16.107Z" fill="black"/>
<path d="M14.6673 65.8121L16.1071 64.3721V56.8839H14.6673V65.8121Z" fill="black"/>
<path d="M17.5418 65.4397V67.909H18.8069V64.1696L17.5418 65.4397Z" fill="black"/>
<path d="M17.5418 56.8839V62.932L18.8069 61.662V56.8839H17.5418Z" fill="black"/>
<path d="M61.9462 29.6126V28.6684L60.5584 24.0603H58.8967V29.6126H61.9462Z" fill="black"/>
<path d="M61.9462 31.3828H58.8967V43.0258H61.9462V31.3828Z" fill="black"/>
<path d="M61.9462 44.7969H58.8967V55.1132H61.9462V44.7969Z" fill="black"/>
<path d="M60.0249 22.2892L59.4962 20.5234L58.8967 22.2279V22.2892H60.0249Z" fill="black"/>
<path d="M58.8967 69.2165V78.8812H61.9462V69.2165H58.8967Z" fill="black"/>
<path d="M61.9462 56.8839H58.8967V67.4457H61.9462V56.8839Z" fill="black"/>
<path d="M57.1263 75.443H52.9155V78.8755H57.1263V75.443Z" fill="black"/>
<path d="M51.1418 75.443H46.9924V79.7631H51.1418V75.443Z" fill="black"/>
<path d="M57.1263 69.3482H52.9155V73.6777H57.1263V69.3482Z" fill="black"/>
<path d="M51.1418 69.3482H46.9924V73.6777H51.1418V69.3482Z" fill="black"/>
<path d="M48.2906 38.0882H46.9924V43.0268H48.2906V38.0882Z" fill="black"/>
<path d="M57.1234 31.3828H55.8347V36.3214H57.1234V31.3828Z" fill="black"/>
<path d="M57.1234 24.0603H55.8347V29.6079H57.1234V24.0603Z" fill="black"/>
<path d="M51.4528 17.0302C51.513 16.9141 51.6037 16.8167 51.7152 16.7485C51.8267 16.6803 51.9547 16.6438 52.0854 16.643C52.2163 16.6427 52.3447 16.6788 52.4564 16.7471C52.5681 16.8155 52.6586 16.9134 52.718 17.0302L55.3899 22.2898H56.74L56.0649 21.6288C55.9328 21.4976 55.8581 21.3193 55.8572 21.1331V12.4079L54.9131 13.966C54.8377 14.0883 54.7261 14.1842 54.5939 14.2404C54.4616 14.2966 54.3152 14.3104 54.1748 14.2798C54.0344 14.2493 53.9069 14.1759 53.81 14.0697C53.7131 13.9636 53.6515 13.83 53.6338 13.6874L52.0618 0L50.5087 13.6921C50.4924 13.8351 50.4318 13.9693 50.3354 14.0761C50.239 14.1828 50.1116 14.2568 49.9711 14.2875C49.8305 14.3182 49.6839 14.3041 49.5518 14.2473C49.4196 14.1905 49.3085 14.0938 49.2341 13.9707L48.29 12.4126V21.1284C48.2898 21.3161 48.2151 21.4961 48.0823 21.6288L47.4119 22.2898H48.7573L51.4528 17.0302Z" fill="black"/>
<path d="M56.5667 44.7969L57.1238 46.0244V44.7969H56.5667Z" fill="black"/>
<path d="M57.1234 38.0882H55.8347V43.0268H57.1234V38.0882Z" fill="black"/>
<path d="M46.9924 44.7969V46.048L47.5588 44.7969H46.9924Z" fill="black"/>
<path d="M48.2906 31.3828H46.9924V36.3214H48.2906V31.3828Z" fill="black"/>
<path d="M48.2906 24.0603H46.9924V29.6079H48.2906V24.0603Z" fill="black"/>
<path d="M51.1447 24.9905V24.0792H49.7285V25.6845C50.1465 25.3561 50.6291 25.1196 51.1447 24.9905Z" fill="black"/>
<path d="M52.0628 18.9096L50.3445 22.2901H53.7811L52.0628 18.9096Z" fill="black"/>
<path d="M54.4025 25.6845V24.0792H52.9155V24.9763C53.4569 25.1011 53.9644 25.3428 54.4025 25.6845Z" fill="black"/>
<path d="M44.8048 38.0882L42.1896 40.7133V43.0268H45.225V38.0882H44.8048Z" fill="black"/>
<path d="M42.3029 38.0882H42.1896V38.2062L42.3029 38.0882Z" fill="black"/>
<path d="M42.1896 59.6975V64.1498L45.225 67.1998V62.7476L42.1896 59.6975Z" fill="black"/>
<path d="M44.638 20.1596L44.0196 22.2889H45.3556L44.638 20.1596Z" fill="black"/>
<path d="M42.1896 44.7969V57.1859L45.225 60.2359V44.7969H42.1896Z" fill="black"/>
<path d="M44.0684 36.3167L45.225 35.1599V31.3828H42.1896V36.3167H44.0684Z" fill="black"/>
<path d="M42.1896 29.6126H45.225V24.0603H43.5066L42.1896 28.6023V29.6126Z" fill="black"/>
<path d="M42.1896 66.6573V79.764H45.225V69.7121L42.1896 66.6573Z" fill="black"/>
<path d="M52.9602 26.3549V29.471H54.3763V28.5267C54.3888 28.0637 54.2599 27.6079 54.0069 27.2199C53.7539 26.832 53.3888 26.5302 52.9602 26.3549Z" fill="black"/>
<path d="M49.733 28.5177V29.4619H51.1492V26.3694C50.7492 26.5765 50.409 26.8827 50.161 27.2588C49.9131 27.6349 49.7657 28.0684 49.733 28.5177Z" fill="black"/>
<path d="M54.3981 31.3828H53.6475L54.3981 32.8559V31.3828Z" fill="black"/>
<path d="M50.4789 31.3828H49.733V32.8559L50.4789 31.3828Z" fill="black"/>
<path d="M51.1445 33.3236L49.733 36.1093V36.317H51.1445V33.3236Z" fill="black"/>
<path d="M54.4025 36.3169V36.1092L52.9155 33.1819V36.3169H54.4025Z" fill="black"/>
<path d="M54.4037 38.0882H54.1251C54.2196 38.1542 54.314 38.2204 54.4037 38.2912V38.0882Z" fill="black"/>
<path d="M50.0115 38.0882H49.733V38.2912C49.8227 38.244 49.9124 38.1542 50.0115 38.0882Z" fill="black"/>
<path d="M49.733 41.1192V42.0635H51.1492V38.971C50.7492 39.1781 50.409 39.4843 50.161 39.8604C49.9131 40.2365 49.7657 40.6699 49.733 41.1192Z" fill="black"/>
<path d="M52.9602 38.9609V42.044H54.3763V41.0997C54.3833 40.642 54.2518 40.1928 53.9991 39.8112C53.7464 39.4295 53.3842 39.1331 52.9602 38.9609Z" fill="black"/>
<path d="M52.9602 46.5343L53.8429 44.7969H52.9602V46.5343Z" fill="black"/>
<path d="M50.6436 44.7969L51.144 45.7789V44.7969H50.6436Z" fill="black"/>
<path d="M52.9602 49.4513V51.6326C53.5437 51.1725 54.2501 50.8949 54.9907 50.8344C55.7313 50.774 56.4733 50.9334 57.1238 51.2927V48.4598L55.2969 44.8527L52.9602 49.4513Z" fill="black"/>
<path d="M51.1418 48.7006L49.1922 44.8527L46.9924 49.1775V51.5382C47.5907 51.1047 48.3038 50.8577 49.0421 50.8283C49.7804 50.7989 50.5109 50.9884 51.1418 51.3729V48.7006Z" fill="black"/>
<path d="M54.4022 52.3035C53.9579 52.4515 53.5765 52.7449 53.3195 53.1364C53.0625 53.528 52.945 53.9947 52.986 54.4612V55.1128H54.4022V52.3035Z" fill="black"/>
<path d="M55.8347 52.3035V55.1364H57.1187V53.6067C57.025 53.3023 56.8594 53.025 56.6359 52.7981C56.4124 52.5713 56.1376 52.4017 55.8347 52.3035Z" fill="black"/>
<path d="M51.1447 54.0505C51.1271 53.6459 50.98 53.2577 50.725 52.9432C50.47 52.6286 50.1207 52.4044 49.7285 52.3035V55.1364H51.1447V54.0505Z" fill="black"/>
<path d="M48.2906 55.113V52.2801C47.986 52.3961 47.7113 52.5789 47.4866 52.815C47.262 53.0511 47.0931 53.3346 46.9924 53.6446V55.0893L48.2906 55.113Z" fill="black"/>
<path d="M57.1234 56.8839H55.8347V67.4457H57.1234V56.8839Z" fill="black"/>
<path d="M54.3952 56.8839H52.9602V67.4457H54.3952V56.8839Z" fill="black"/>
<path d="M49.733 67.9083H50.3609L49.733 67.2756V67.9083Z" fill="black"/>
<path d="M51.1445 56.8839H49.733V64.7639L51.1445 66.1851V56.8839Z" fill="black"/>
<path d="M48.2906 65.831L46.9924 64.5279V67.9084H48.2906V65.831Z" fill="black"/>
<path d="M46.9924 56.8839V62.0161L48.2906 63.3239V56.8839H46.9924Z" fill="black"/>
<path d="M32.2005 69.7589H29.3256V75.146H32.2005V69.7589Z" fill="black"/>
<path d="M36.5078 69.7589H33.6329V75.146H36.5078V69.7589Z" fill="black"/>
<path d="M34.0505 36.3167H38.9411L36.0332 31.3828H33.9231V36.1089L34.0505 36.3167Z" fill="black"/>
<path d="M25.3709 43.0266H25.5928L25.3709 42.8047V43.0266Z" fill="black"/>
<path d="M40.4595 47.2189V44.7969H39.0338L40.4595 47.2189Z" fill="black"/>
<path d="M34.9947 29.6124L33.9231 27.7946V29.6124H34.9947Z" fill="black"/>
<path d="M39.8819 43.026H40.4626V42.4453L39.8819 43.026Z" fill="black"/>
<path d="M32.1511 27.3795L30.8387 29.6127H32.1511V27.3795Z" fill="black"/>
<path d="M25.3709 47.2189L26.7965 44.7969H25.3709V47.2189Z" fill="black"/>
<path d="M31.7878 36.3167L32.156 35.6935V31.3828H29.8051L26.9019 36.3167H31.7878Z" fill="black"/>
<path d="M40.4602 39.9389V38.905L39.9787 38.0882H35.0881L37.7647 42.6396L40.4602 39.9389Z" fill="black"/>
<path d="M25.3709 40.2931L27.9342 42.8662L30.743 38.0882H25.8524L25.3709 38.905V40.2931Z" fill="black"/>
<path d="M25.3709 66.605L26.8107 64.8723V63.385L25.3709 64.8251V66.605Z" fill="black"/>
<path d="M29.6242 47.0724L28.0333 45.4765L25.3709 50.0044V55.0752L26.7871 53.6304V52.1385C26.7932 51.123 27.0566 50.1257 27.5528 49.2397C28.0489 48.3537 28.7616 47.608 29.6242 47.0724Z" fill="black"/>
<path d="M39.0249 64.8727L40.46 66.6055V64.9246L39.0249 63.4799V64.8727Z" fill="black"/>
<path d="M25.3709 57.5829V62.3232L26.8107 60.8831V56.1428L25.3709 57.5829Z" fill="black"/>
<path d="M29.8612 44.7969L31.3766 46.3219C32.293 46.0875 33.2514 46.0697 34.1759 46.2699L35.6204 44.8205L29.8612 44.7969Z" fill="black"/>
<path d="M37.666 45.25L35.9808 46.9402C36.9007 47.4609 37.6668 48.2155 38.2015 49.1275C38.7362 50.0395 39.0205 51.0766 39.0256 52.1338V54.0224L40.4418 55.4671V50.0045L37.666 45.25Z" fill="black"/>
<path d="M36.3598 43.0268L33.4566 38.0882H32.385L29.4818 43.0268H36.3598Z" fill="black"/>
<path d="M39.0249 56.5156V60.9679L40.46 62.4127V57.9604L39.0249 56.5156Z" fill="black"/>
<path d="M32.7 47.654L32.7378 47.6918L32.7709 47.654H32.7Z" fill="black"/>
<path d="M33.9956 48.9581V48.933L33.9856 48.9431L33.9956 48.9581Z" fill="black"/>
<path d="M31.4949 51.4404H33.9685L32.7317 50.1986L31.4949 51.4404Z" fill="black"/>
<path d="M31.4815 48.9375V48.948L31.4868 48.9427L31.4815 48.9375Z" fill="black"/>
<path d="M30.3993 48.4364C29.8865 48.7806 29.4503 49.2272 29.118 49.748C28.7858 50.2687 28.5647 50.8525 28.4686 51.4628H28.9973L30.4135 50.0464L30.3993 48.4364Z" fill="black"/>
<path d="M37.3717 51.4637C37.2709 50.8577 37.0472 50.2786 36.7144 49.7622C36.3815 49.2458 35.9465 48.8029 35.4362 48.4609V50.4203L36.47 51.4637H37.3717Z" fill="black"/>
<path d="M28.2499 54.6975V55.0327H30.4072V54.8155L29.2695 53.673L28.2499 54.6975Z" fill="black"/>
<path d="M31.4815 52.875V53.3896L32.8835 54.7966L33.9929 53.6823V52.875H31.4815Z" fill="black"/>
<path d="M35.4362 54.7488V55.0321H37.5463L36.352 53.8281L35.4362 54.7488Z" fill="black"/>
<path d="M28.2499 56.4676V58.6253H29.0666L30.4072 57.2844V56.4676H28.2499Z" fill="black"/>
<path d="M31.5663 58.6255H33.9927V58.4225L32.8786 57.3035L31.5663 58.6255Z" fill="black"/>
<path d="M37.5888 56.4676H35.4362V57.36L36.6919 58.6253H37.5888V56.4676Z" fill="black"/>
<path d="M28.2499 63.2483L31.2145 60.0614H30.1334L28.2499 61.9499V63.2483Z" fill="black"/>
<path d="M34.6194 60.0614L37.584 63.2483V62.0349L35.6202 60.0614H34.6194Z" fill="black"/>
<path d="M40.4636 75.1503V68.7103L32.9105 60.5658L25.3575 68.7103V75.1503H27.8736V69.0124C27.8736 68.8271 27.9472 68.6494 28.0782 68.5183C28.2093 68.3873 28.387 68.3137 28.5723 68.3137H36.8901C37.0753 68.3137 37.2531 68.3873 37.3841 68.5183C37.5151 68.6494 37.5887 68.8271 37.5887 69.0124V75.1503H40.4636Z" fill="black"/>
<path d="M41.3592 78.3705H24.4782V79.7633H41.3592V78.3705Z" fill="black"/>
<path d="M40.4581 76.039H25.3709V77.5593H40.4581V76.039Z" fill="black"/>
<path d="M0.472066 44.7969H0V55.1132H0.472066V44.7969Z" fill="black"/>
<path d="M0.472066 69.2165H0V78.8812H0.472066V69.2165Z" fill="black"/>
<path d="M0.472066 56.8839H0V67.4457H0.472066V56.8839Z" fill="black"/>
<path d="M0.472066 6.05692H0V22.2892H0.472066V6.05692Z" fill="black"/>
<path d="M0.472066 24.0603H0V29.6079H0.472066V24.0603Z" fill="black"/>
<path d="M0.472066 31.3828H0V43.0258H0.472066V31.3828Z" fill="black"/>
<path d="M0.472066 78.8812H0V79.5321H0.472066V78.8812Z" fill="black"/>
<path d="M0.472066 68.5647H0V69.2165H0.472066V68.5647Z" fill="black"/>
<path d="M0.472066 67.4457H0V68.0968H0.472066V67.4457Z" fill="black"/>
<path d="M0.472066 56.2317H0.0566479V55.7595H0.472066V55.1132H0V56.8839H0.472066V56.2317Z" fill="black"/>
<path d="M0.472066 44.1495H0V44.8011H0.472066V44.1495Z" fill="black"/>
<path d="M0.472066 43.0258H0V43.6783H0.472066V43.0258Z" fill="black"/>
<path d="M0.472066 30.7321H0V31.3828H0.472066V30.7321Z" fill="black"/>
<path d="M0.472066 29.6127H0V30.2643H0.472066V29.6127Z" fill="black"/>
<path d="M0.472066 23.4141H0V24.0656H0.472066V23.4141Z" fill="black"/>
<path d="M0.472066 22.2892H0V22.9406H0.472066V22.2892Z" fill="black"/>
<path d="M32.916 26.081L33.2748 26.6901V24.0603H32.8027V26.2793L32.916 26.081Z" fill="black"/>
<path d="M33.2748 36.3168V35.1742C33.167 35.1072 33.0429 35.0713 32.916 35.0704C32.8784 35.0658 32.8403 35.0658 32.8027 35.0704V36.2979L33.2748 36.3168Z" fill="black"/>
<path d="M33.2748 29.6131V26.6901L32.916 26.081L32.8027 26.2793V29.6131H33.2748Z" fill="black"/>
<path d="M32.916 35.0717C33.0429 35.0726 33.167 35.1086 33.2748 35.1756V31.3984H32.8027V35.1047C32.8389 35.089 32.877 35.0779 32.916 35.0717Z" fill="black"/>
<path d="M33.2748 29.6131H32.8027V30.2643H33.2748V29.6131Z" fill="black"/>
<path d="M33.2748 30.7321H32.8027V31.3837H33.2748V30.7321Z" fill="black"/>
<path d="M33.2748 23.4141H32.8027V24.0603H33.2748V23.4141Z" fill="black"/>
<path d="M33.2748 36.3168L32.8027 36.3169V36.9685H33.2748V36.3168Z" fill="black"/>
<path d="M13.7696 31.5103L14.0056 31.9777V31.3828H13.5335V31.9777L13.7696 31.5103Z" fill="black"/>
<path d="M14.0056 44.7969H13.5335V55.1132H14.0056V44.7969Z" fill="black"/>
<path d="M14.0056 69.2165H13.5335V69.3487H14.0056V69.2165Z" fill="black"/>
<path d="M14.0056 38.0915H13.5335V43.0301H14.0056V38.0915Z" fill="black"/>
<path d="M14.0056 29.6131V24.8917H13.5335V29.6131H14.0056Z" fill="black"/>
<path d="M13.5335 56.8839V66.95L14.0056 66.4778V56.8839H13.5335Z" fill="black"/>
<path d="M14.0056 69.3487H13.5335V73.6777H14.0056V69.3487Z" fill="black"/>
<path d="M14.0056 75.443H13.5335V78.8755H14.0056V75.443Z" fill="black"/>
<path d="M14.0056 24.8866V24.0792H13.5335V24.9055H13.7696L14.0056 24.8866Z" fill="black"/>
<path d="M14.0056 36.3164V31.9777L13.7696 31.5103L13.5335 31.9777V36.3164H14.0056Z" fill="black"/>
<path d="M14.0056 73.673H13.5335V74.3245H14.0056V73.673Z" fill="black"/>
<path d="M14.0056 74.7957H13.5335V75.4473H14.0056V74.7957Z" fill="black"/>
<path d="M13.5335 79.5274H14.0056V79.7634V78.8805H13.5335V79.5274Z" fill="black"/>
<path d="M13.7979 68.8248C13.7082 68.8226 13.6193 68.8083 13.5335 68.7823V69.2165H14.0056V68.7965C13.938 68.8155 13.8681 68.825 13.7979 68.8248Z" fill="black"/>
<path d="M13.5335 66.95V67.4455H13.9584L14.0056 67.3983V66.4778L13.5335 66.95Z" fill="black"/>
<path d="M14.0056 68.0919V68.5641H13.5335V68.7823C13.6193 68.8083 13.7082 68.8226 13.7979 68.8248C13.8681 68.825 13.938 68.8155 14.0056 68.7965V68.0636L13.9773 68.0919H14.0056Z" fill="black"/>
<path d="M13.6237 68.0921C13.5832 68.0485 13.5608 67.9911 13.5608 67.9316C13.5608 67.8721 13.5832 67.8147 13.6237 67.771L13.9494 67.4453H13.5246V68.0921H13.6237Z" fill="black"/>
<path d="M14.0056 56.2321H13.5335V56.8839H14.0056V56.2321Z" fill="black"/>
<path d="M14.0056 55.1132H13.5335V55.7643H14.0056V55.1132Z" fill="black"/>
<path d="M14.0056 43.0268H13.5335V43.6783H14.0056V43.0268Z" fill="black"/>
<path d="M14.0056 44.1495H13.5335V44.8011H14.0056V44.1495Z" fill="black"/>
<path d="M14.0056 30.7321H13.5335V31.3828H14.0056V30.7321Z" fill="black"/>
<path d="M14.0056 29.6131H13.5335V30.2643H14.0056V29.6131Z" fill="black"/>
<path d="M14.0056 23.4141H13.5335V24.0609H14.0056V23.4141Z" fill="black"/>
<path d="M14.0056 38.0915V37.4877H13.5335V38.0915H14.0056Z" fill="black"/>
<path d="M14.0056 37.478V37.4308H13.5335V37.478H14.0056Z" fill="black"/>
<path d="M14.0056 36.3214H13.5335V36.973H14.0056V36.3214Z" fill="black"/>
<path d="M19.9243 24.0603H19.4522V29.6079H19.9243V24.0603Z" fill="black"/>
<path d="M19.9243 44.7969H19.4522V55.1132H19.9243V44.7969Z" fill="black"/>
<path d="M19.9243 38.0915H19.4522V43.0301H19.9243V38.0915Z" fill="black"/>
<path d="M19.4522 70.1182V73.6545H19.9243V70.0993C19.8479 70.1237 19.7684 70.1364 19.6882 70.1371C19.6091 70.1422 19.5296 70.1358 19.4522 70.1182Z" fill="black"/>
<path d="M19.9243 34.9852V31.3828H19.4522V34.9805C19.6071 34.9397 19.7702 34.9413 19.9243 34.9852Z" fill="black"/>
<path d="M19.4522 63.5215V68.2523L19.9243 67.7802V63.0446L19.4522 63.5215Z" fill="black"/>
<path d="M19.4522 56.8839V61.0104L19.9243 60.5383V56.8839H19.4522Z" fill="black"/>
<path d="M18.8078 74.3247H14.6583V74.7969H18.8078V74.3247Z" fill="black"/>
<path d="M12.888 74.3247H8.67716V74.7969H12.888V74.3247Z" fill="black"/>
<path d="M8.02548 74.7924H8.56364V74.3203H8.02548V74.7924Z" fill="black"/>
<path d="M8.67887 74.3247H8.56557V74.7969H8.67887V74.3247Z" fill="black"/>
<path d="M13.5378 74.3247H12.8863V74.7969H13.5378V74.3247Z" fill="black"/>
<path d="M14.6583 74.3247L14.0056 74.3245L14.0067 74.7969H14.6583V74.3247Z" fill="black"/>
<path d="M19.4514 74.3245H18.9746V74.7967H19.9235V73.673H19.4514V74.3245Z" fill="black"/>
<path d="M18.9796 74.3247H18.805V74.7969H18.9796V74.3247Z" fill="black"/>
<path d="M19.4522 61.0104V61.9307L19.9243 61.4586V60.5383L19.4522 61.0104Z" fill="black"/>
<path d="M19.4522 62.6007V63.5215L19.9243 63.0446V62.1239L19.4522 62.6007Z" fill="black"/>
<path d="M19.6882 69.5048C19.6268 69.5042 19.5679 69.4806 19.523 69.4387C19.4785 69.3951 19.4531 69.3357 19.4522 69.2734V70.1182C19.5286 70.1422 19.6081 70.1553 19.6882 70.1563C19.7684 70.1556 19.8479 70.1429 19.9243 70.1185V69.3678L19.8582 69.4387C19.8116 69.4809 19.7511 69.5044 19.6882 69.5048Z" fill="black"/>
<path d="M19.4522 69.2673C19.4524 69.2365 19.4587 69.2059 19.4709 69.1776C19.4831 69.1492 19.5008 69.1235 19.523 69.1021L19.9243 68.6961V67.7802L19.4522 68.2523V69.2673Z" fill="black"/>
<path d="M19.5183 36.0013C19.4795 35.9619 19.456 35.91 19.4522 35.8549V36.327H19.8251L19.5183 36.0013Z" fill="black"/>
<path d="M19.5183 35.6659C19.5632 35.6223 19.6233 35.598 19.6859 35.598C19.7484 35.598 19.8085 35.6223 19.8535 35.6659L19.9243 35.7414V34.9852C19.7698 34.9428 19.6067 34.9436 19.4522 34.986V35.817C19.4549 35.7602 19.4785 35.7064 19.5183 35.6659Z" fill="black"/>
<path d="M19.4522 55.1132V55.7595H19.9243V56.2317H19.4522V56.8839H19.9243V55.1132H19.4522Z" fill="black"/>
<path d="M19.9243 44.1495H19.4522V44.8011H19.9243V44.1495Z" fill="black"/>
<path d="M19.9243 43.0268H19.4522V43.6783H19.9243V43.0268Z" fill="black"/>
<path d="M19.9243 29.6127H19.4522V30.2643H19.9243V29.6127Z" fill="black"/>
<path d="M19.9243 30.7321H19.4522V31.3828H19.9243V30.7321Z" fill="black"/>
<path d="M19.9243 23.4141H19.4522V24.0603H19.9243V23.4141Z" fill="black"/>
<path d="M19.9243 37.4408H19.4522V38.0915H19.9243V37.4408Z" fill="black"/>
<path d="M19.4522 36.8549V36.9682H19.5655L19.4522 36.8549Z" fill="black"/>
<path d="M19.5655 36.9682L19.9243 36.9685V36.4067L19.8346 36.3169H19.4522V36.8549L19.5655 36.9682Z" fill="black"/>
<path d="M14.0056 74.3245H13.5335V74.7969H14.0067L14.0056 74.3245Z" fill="black"/>
<path d="M12.888 79.7634H8.67716V79.9994H12.888V79.7634Z" fill="black"/>
<path d="M3.89584 79.7639V79.5279H1.12482V80H6.90762V79.7639H3.89584Z" fill="black"/>
<path d="M6.90847 79.5279H3.89584V79.7639H6.90762L6.90847 79.5279Z" fill="black"/>
<path d="M12.888 79.5279H8.67716V79.7634H12.888V79.5279Z" fill="black"/>
<path d="M1.12012 79.5279H0.468674V80H1.12012V79.5279Z" fill="black"/>
<path d="M8.56208 79.7639V79.5279H7.12228V79.7639H6.90513V80H8.67537V79.7639H8.56208Z" fill="black"/>
<path d="M7.127 79.5279H6.90513V79.7639H7.127V79.5279Z" fill="black"/>
<path d="M8.67887 79.5279H8.56557V79.7639H8.67887V79.5279Z" fill="black"/>
<path d="M13.5378 79.7634H12.8863V79.9994H13.5378V79.7634Z" fill="black"/>
<path d="M13.5378 79.5279H12.8863V79.7634H13.5378V79.5279Z" fill="black"/>
<path d="M0.472066 79.5279H0V80H0.472066V79.5279Z" fill="black"/>
<path d="M14.0056 79.7634L13.5335 79.7634V79.9994H14.0056V79.7634Z" fill="black"/>
<path d="M14.0056 79.5274H13.5335V79.7634L14.0056 79.7634V79.5274Z" fill="black"/>
<path d="M12.888 68.0926H8.67716V68.5647H12.888V68.0926Z" fill="black"/>
<path d="M3.89584 68.0926H1.12482V68.5647H3.89584V68.0926Z" fill="black"/>
<path d="M6.90847 68.0926H3.89584V68.5647H6.90847V68.0926Z" fill="black"/>
<path d="M1.12012 68.0926H0.468674V68.5647H1.12012V68.0926Z" fill="black"/>
<path d="M8.67221 68.0926H8.02548V68.5647H8.67221V68.0926Z" fill="black"/>
<path d="M7.55342 68.0926H7.12384V68.5647H7.55342V68.0926Z" fill="black"/>
<path d="M7.127 68.0926H6.90513V68.5647H7.127V68.0926Z" fill="black"/>
<path d="M12.9288 68.0926H12.8863V68.5647H13.1743C13.0466 68.4358 12.961 68.2712 12.9288 68.0926Z" fill="black"/>
<path d="M13.5352 68.0926H12.9309C12.9631 68.2712 13.0487 68.4358 13.1764 68.5647H13.5352V68.0926Z" fill="black"/>
<path d="M0.472066 68.0926H0V68.5647H0.472066V68.0926Z" fill="black"/>
<path d="M13.5335 68.5641H14.0056V68.0919H13.9773C13.9322 68.1371 13.8711 68.1633 13.8073 68.1634C13.7451 68.1625 13.6857 68.1371 13.6421 68.0926H13.5524L13.5335 68.5641Z" fill="black"/>
<path d="M33.6106 47.7342C33.7393 47.7505 33.867 47.7742 33.993 47.8051V48.0128L35.3714 46.6294C35.2141 46.5633 35.0567 46.5019 34.8994 46.4453L33.6106 47.7342Z" fill="black"/>
<path d="M16.109 65.2927V65.9631L17.5441 64.5184V63.8526L16.109 65.2927Z" fill="black"/>
<path d="M30.4034 50.9478V51.4199H29.9313L29.7095 51.6418C29.7958 51.6826 29.8742 51.7386 29.9408 51.8071L30.0777 51.9393L31.4939 50.5228V49.8571L30.4034 50.9478Z" fill="black"/>
<path d="M14.6583 66.7463V67.412L14.6678 67.4025V66.7321L14.6583 66.7463Z" fill="black"/>
<path d="M28.482 52.8799H28.5292V52.8515L28.482 52.8799Z" fill="black"/>
<path d="M23.6435 57.7238V58.3942L25.3712 56.6615V55.991L23.6435 57.7238Z" fill="black"/>
<path d="M26.8126 54.5516V55.2221L28.2477 53.7773V53.1116L26.8126 54.5516Z" fill="black"/>
<path d="M42.1899 39.1272L40.4622 40.86V41.5257L42.1899 39.7977V39.1272Z" fill="black"/>
<path d="M20.577 60.8074V61.4778L23.6454 58.3947V57.7243L20.577 60.8074Z" fill="black"/>
<path d="M14.6678 66.7321V67.4025L16.1071 65.9628V65.2924L14.6678 66.7321Z" fill="black"/>
<path d="M17.5418 64.5183L18.8069 63.253V62.5826L17.5418 63.8526V64.5183Z" fill="black"/>
<path d="M42.1899 39.7977L43.889 38.0882H43.2234L42.1899 39.1272V39.7977Z" fill="black"/>
<path d="M45.2198 36.0815L44.9838 36.3175H45.2198V36.0815Z" fill="black"/>
<path d="M40.4639 40.8594L38.3018 43.0265H38.9674L40.4639 41.5251V40.8594Z" fill="black"/>
<path d="M34.8917 46.4446C35.0585 46.5013 35.2158 46.5627 35.3637 46.6288L37.1906 44.7969H36.5344L34.8917 46.4446Z" fill="black"/>
<path d="M25.3712 55.991V56.6615L26.8107 55.2218V54.5513L25.3712 55.991Z" fill="black"/>
<path d="M33.9888 47.8041C33.8628 47.7732 33.7352 47.7496 33.6065 47.7332L33.191 48.1487L33.5215 48.4839L33.9936 48.0118L33.9888 47.8041Z" fill="black"/>
<path d="M31.4815 49.8667V50.5324L32.2746 49.7345L31.9441 49.404L31.4815 49.8667Z" fill="black"/>
<path d="M30.4057 50.9486L29.9148 51.4397H30.4057V50.9486Z" fill="black"/>
<path d="M28.5292 52.8799H28.482L28.2499 53.1155V53.7812L28.7975 53.2147L28.6559 53.073C28.6056 53.014 28.5636 52.9494 28.5292 52.8799Z" fill="black"/>
<path d="M14.0056 67.3983L14.0067 67.4454H14.6251L14.6583 67.412V66.7463L14.0056 67.3983Z" fill="black"/>
<path d="M19.9243 61.4586L19.9253 62.1243L20.4163 61.638V60.9676L19.9243 61.4586Z" fill="black"/>
<path d="M18.9746 62.4076V63.0781L19.4522 62.6007V61.9307L18.9746 62.4076Z" fill="black"/>
<path d="M20.4163 60.9676V61.638L20.577 61.4778V60.8074L20.4163 60.9676Z" fill="black"/>
<path d="M18.805 62.582V63.2525L18.9746 63.0781V62.4076L18.805 62.582Z" fill="black"/>
<path d="M14.0056 68.0636L14.6251 67.4454H14.0067L14.0056 68.0636Z" fill="black"/>
<path d="M29.1309 52.6149C29.1087 52.593 29.0912 52.5669 29.0792 52.5381C29.0672 52.5093 29.061 52.4785 29.061 52.4473C29.061 52.4162 29.0672 52.3853 29.0792 52.3565C29.0912 52.3278 29.1087 52.3017 29.1309 52.2797C29.1758 52.2362 29.2359 52.2118 29.2984 52.2118C29.361 52.2118 29.4211 52.2362 29.466 52.2797L29.6029 52.4213L30.075 51.9492L29.9381 51.817C29.8715 51.7485 29.7932 51.6925 29.7068 51.6518L28.5266 52.8368V52.8652H29.145L29.2678 52.7424L29.1309 52.6149Z" fill="black"/>
<path d="M28.5266 52.8794C28.5651 52.9514 28.6127 53.018 28.6682 53.0777L28.8099 53.2194L29.145 52.8794H28.5266Z" fill="black"/>
<path d="M32.7358 48.6064L33.0709 48.9416L33.5288 48.4836L33.1984 48.1484L32.7358 48.6064Z" fill="black"/>
<path d="M32.3991 48.9419L31.9412 49.4046L32.2717 49.7351L32.7296 49.2772L32.3991 48.9419Z" fill="black"/>
<path d="M37.0833 44.2534L37.3287 44.6736L37.848 44.1495H37.1824L37.0833 44.2534Z" fill="black"/>
<path d="M38.1033 43.2198L37.6501 43.6778H38.3158L38.3535 43.6401L38.1033 43.2198Z" fill="black"/>
<path d="M38.1054 43.2203L38.3556 43.6406L38.9646 43.0268H38.299L38.1054 43.2203Z" fill="black"/>
<path d="M36.5344 44.7969L37.1999 44.7963L37.3273 44.6735L37.0818 44.2533L36.5344 44.7969Z" fill="black"/>
<path d="M45.224 36.7466V36.3169H44.988L44.3366 36.9685H45.0069L45.224 36.7466Z" fill="black"/>
<path d="M43.8863 38.0877L44.533 37.4408H43.8674L43.2207 38.0877H43.8863Z" fill="black"/>
<path d="M45.6525 36.3173L45.8744 36.0954V35.4297L45.4212 35.8829V36.3173H45.6525Z" fill="black"/>
<path d="M45.4275 36.3172V35.8828L45.2293 36.0811V36.3172H45.4275Z" fill="black"/>
<path d="M45.6525 36.3173H45.4212V36.553L45.6525 36.3173Z" fill="black"/>
<path d="M45.4275 36.3172H45.2293V36.7466L45.4275 36.553V36.3172Z" fill="black"/>
<path d="M14.0092 67.4456V67.3984L13.962 67.4456H14.0092Z" fill="black"/>
<path d="M13.6322 67.771C13.5917 67.8147 13.5692 67.8721 13.5692 67.9316C13.5692 67.9911 13.5917 68.0485 13.6322 68.0921H13.9862L14.0146 68.0638V67.4453H13.9674L13.6322 67.771Z" fill="black"/>
<path d="M19.4522 61.9307V62.6007L19.9243 62.1239V61.4586L19.4522 61.9307Z" fill="black"/>
<path d="M13.798 68.1779C13.8618 68.1778 13.9229 68.1523 13.9679 68.1071H13.6139C13.6376 68.1315 13.6664 68.1504 13.6982 68.1627C13.7299 68.1749 13.764 68.1801 13.798 68.1779Z" fill="black"/>
<path d="M30.4089 58.2006V58.6255H29.984L28.5489 60.0608H29.2193L31.4852 57.7898V57.1194L30.4089 58.2006Z" fill="black"/>
<path d="M35.4296 53.1629L33.9898 54.603V55.0326H33.5649L33.3383 55.2592L33.6688 55.5944L35.4296 53.8334V53.1629Z" fill="black"/>
<path d="M26.8126 61.7983V62.4687L28.2477 61.0287V60.3582L26.8126 61.7983Z" fill="black"/>
<path d="M23.6435 64.9716V65.6373L25.3712 63.9092V63.2388L23.6435 64.9716Z" fill="black"/>
<path d="M20.577 68.0504V68.7161L23.6454 65.6378V64.9721L20.577 68.0504Z" fill="black"/>
<path d="M25.3712 63.2388V63.9092L26.8107 62.4695V61.7991L25.3712 63.2388Z" fill="black"/>
<path d="M33.9898 55.0326V54.603L33.5649 55.0326H33.9898Z" fill="black"/>
<path d="M35.5637 53.0357L35.4362 53.1632V53.8336L35.8941 53.3709L35.5637 53.0357Z" fill="black"/>
<path d="M30.4066 58.6258V58.2009L29.9817 58.6258H30.4066Z" fill="black"/>
<path d="M31.4815 57.1202V57.7906L32.4256 56.8464L32.0905 56.5111L31.4815 57.1202Z" fill="black"/>
<path d="M28.2499 60.3588V61.0292L29.2176 60.0614H28.5473L28.2499 60.3588Z" fill="black"/>
<path d="M19.9243 69.3678L20.4163 68.8766V68.2109L19.9253 68.6972L19.9243 69.3678Z" fill="black"/>
<path d="M20.4163 68.2109V68.8766L20.577 68.7161V68.0504L20.4163 68.2109Z" fill="black"/>
<path d="M32.8831 55.7169L33.2135 56.0521L33.6714 55.5941L33.341 55.2589L32.8831 55.7169Z" fill="black"/>
<path d="M32.5486 56.0524L32.1332 56.4679H32.7988L32.8838 56.3876L32.5486 56.0524Z" fill="black"/>
<path d="M32.131 56.4676L32.0885 56.5101L32.4237 56.8453L32.7966 56.4676H32.131Z" fill="black"/>
<path d="M35.713 52.8755H36.3125L36.0151 52.5781L35.713 52.8755Z" fill="black"/>
<path d="M36.3165 52.875H35.717L35.5612 53.0355L35.8916 53.3707L36.3495 52.908L36.3165 52.875Z" fill="black"/>
<path d="M19.523 69.1021C19.5008 69.1235 19.4831 69.1492 19.4709 69.1776C19.4587 69.2059 19.4524 69.2365 19.4522 69.2673C19.4531 69.3296 19.4785 69.3894 19.523 69.4329C19.5679 69.4749 19.6268 69.4984 19.6882 69.499C19.7511 69.4987 19.8116 69.4752 19.8582 69.4329L19.9243 69.3621V68.6961L19.523 69.1021Z" fill="black"/>
<path d="M35.7742 58.6264H35.4343V58.2818L33.9945 56.837V57.5075L36.5389 60.0618H37.2045L35.7742 58.6264Z" fill="black"/>
<path d="M30.4058 53.2243V53.8947L31.4821 54.9759V54.3102L30.4058 53.2243Z" fill="black"/>
<path d="M40.4622 63.3326V64.003L42.1899 65.7358V65.07L40.4622 63.3326Z" fill="black"/>
<path d="M37.5876 60.443V61.1135L39.0274 62.5582V61.8878L37.5876 60.443Z" fill="black"/>
<path d="M32.1962 55.0335H31.5306L32.0876 55.5906L32.4228 55.2554L32.1962 55.0335Z" fill="black"/>
<path d="M42.1896 65.0714V65.7371L45.225 68.7919V68.1214L42.1896 65.0714Z" fill="black"/>
<path d="M39.0249 61.8884V62.5588L40.46 64.0036V63.3331L39.0249 61.8884Z" fill="black"/>
<path d="M30.058 52.8794L29.7229 53.2147L30.4026 53.8945V53.2241L30.058 52.8794Z" fill="black"/>
<path d="M31.4821 54.9759L31.5334 55.0326H32.199L31.4821 54.3102V54.9759Z" fill="black"/>
<path d="M33.6688 56.5111L33.3383 56.8464L33.9898 57.5074V56.8369L33.6688 56.5111Z" fill="black"/>
<path d="M35.4362 58.6259H35.7761L35.4362 58.2812V58.6259Z" fill="black"/>
<path d="M37.2045 60.0618H36.5389L37.5867 61.1142V60.4438L37.2045 60.0618Z" fill="black"/>
<path d="M29.2676 52.7523L29.3903 52.8751H30.0559L29.6029 52.4213L29.2676 52.7523Z" fill="black"/>
<path d="M29.3881 52.875L29.7229 53.2147L30.058 52.8794L30.0537 52.875H29.3881Z" fill="black"/>
<path d="M32.4228 55.2554L32.0876 55.5906L32.5464 56.0535L32.8816 55.7183L32.4228 55.2554Z" fill="black"/>
<path d="M32.8838 56.3876L32.9633 56.4679H33.6289L33.2135 56.0521L32.8838 56.3876Z" fill="black"/>
<path d="M33.6289 56.4679H32.9633L33.3411 56.8453L33.6715 56.5101L33.6289 56.4679Z" fill="black"/>
<path d="M45.4212 68.3192V68.9896L45.8649 69.4334V68.7677L45.4212 68.3192Z" fill="black"/>
<path d="M45.4275 68.3188L45.2293 68.1205V68.7909L45.4275 68.9892V68.3188Z" fill="black"/>
<path d="M29.1321 52.2799C29.1099 52.3019 29.0924 52.328 29.0804 52.3568C29.0684 52.3855 29.0622 52.4164 29.0622 52.4475C29.0622 52.4787 29.0684 52.5096 29.0804 52.5383C29.0924 52.5671 29.1099 52.5932 29.1321 52.6152L29.269 52.7521L29.6041 52.4216L29.4672 52.2799C29.4223 52.2364 29.3622 52.212 29.2996 52.212C29.2371 52.212 29.177 52.2364 29.1321 52.2799Z" fill="black"/>
<path d="M32.5486 56.0524L32.8838 56.3876L33.2135 56.0521L32.8831 55.7169L32.5486 56.0524Z" fill="black"/>
<path d="M35.9192 51.8081L35.551 51.4398H35.433V51.3171L34.0168 49.9006V50.5664L35.5841 52.1386L35.7493 51.9733C35.7962 51.909 35.8536 51.8532 35.9192 51.8081Z" fill="black"/>
<path d="M48.2957 64.2388V64.9092L49.7355 66.354V65.6836L48.2957 64.2388Z" fill="black"/>
<path d="M31.8661 47.7344L30.6859 46.5446C30.5254 46.606 30.3743 46.6721 30.2138 46.7476L31.479 48.0177V47.8052C31.6065 47.7738 31.7357 47.7501 31.8661 47.7344Z" fill="black"/>
<path d="M28.2767 44.7969L28.3758 44.9007L28.4372 44.7969H28.2767Z" fill="black"/>
<path d="M23.6435 40.1467L25.3712 41.8842V41.2138L23.6435 39.481V40.1467Z" fill="black"/>
<path d="M40.4622 56.3694V57.0398L42.1899 58.7773V58.1069L40.4622 56.3694Z" fill="black"/>
<path d="M37.5876 53.4843V54.1548L39.0274 55.5948V54.9291L37.5876 53.4843Z" fill="black"/>
<path d="M23.6435 39.481L22.2648 38.0882H21.5992L23.6435 40.1467V39.481Z" fill="black"/>
<path d="M42.1899 58.1069V58.7773L45.225 61.8276V61.1572L42.1899 58.1069Z" fill="black"/>
<path d="M49.733 65.6852V66.3557L51.1445 67.7768V67.1064L49.733 65.6852Z" fill="black"/>
<path d="M48.2906 64.2383L46.9924 62.9352V63.6057L48.2906 64.9088V64.2383Z" fill="black"/>
<path d="M25.3712 41.8842L26.5086 43.0262H27.1789L25.3712 41.2138V41.8842Z" fill="black"/>
<path d="M39.0249 54.9297V55.5954L40.46 57.0401V56.3697L39.0249 54.9297Z" fill="black"/>
<path d="M28.9458 44.7969H28.4407L28.3793 44.9007L30.2157 46.7421C30.3667 46.6665 30.5178 46.6004 30.6877 46.5391L28.9458 44.7969Z" fill="black"/>
<path d="M33.5262 49.404L33.191 49.7392L33.9936 50.5419V49.8761L33.5262 49.404Z" fill="black"/>
<path d="M31.4815 47.8038V48.0163L31.9536 48.4884L32.284 48.1532L31.8733 47.7377C31.7415 47.7517 31.6106 47.7737 31.4815 47.8038Z" fill="black"/>
<path d="M35.4362 51.4397H35.5542L35.4362 51.3169V51.4397Z" fill="black"/>
<path d="M37.1173 53.0122C37.0803 53.081 37.0343 53.1446 36.9804 53.2011L36.8199 53.3522L37.5988 54.136V53.4655L37.1173 53.0122Z" fill="black"/>
<path d="M20.4163 36.3171V36.2321L19.9243 35.7414L19.9253 36.3171H20.4163Z" fill="black"/>
<path d="M20.5013 36.3171L20.4163 36.2321V36.3171L20.5013 36.3171Z" fill="black"/>
<path d="M32.7358 49.2772L33.1937 49.7399L33.5288 49.4046L33.0709 48.9416L32.7358 49.2772Z" fill="black"/>
<path d="M32.2717 48.1484L31.9412 48.4836L32.3991 48.9419L32.7296 48.6064L32.2717 48.1484Z" fill="black"/>
<path d="M36.5147 52.7428L36.3825 52.875H36.9773L36.5052 52.4029C36.5287 52.4243 36.5476 52.4502 36.5608 52.479C36.5741 52.5079 36.5813 52.5391 36.5822 52.5708C36.5831 52.6026 36.5776 52.6342 36.566 52.6637C36.5544 52.6933 36.5369 52.7202 36.5147 52.7428Z" fill="black"/>
<path d="M36.5053 52.4071L35.92 51.8169C35.8478 51.8527 35.7823 51.9006 35.7264 51.9586L35.5612 52.1238L36.0333 52.596L36.1985 52.426C36.2389 52.3867 36.2921 52.3632 36.3484 52.3597C36.4047 52.3563 36.4604 52.3731 36.5053 52.4071Z" fill="black"/>
<path d="M37.1173 53.0122L36.9793 52.875H36.3845L36.3468 52.9127L36.8188 53.3849L36.9935 53.2149C37.0435 53.1531 37.0858 53.0852 37.1173 53.0122Z" fill="black"/>
<path d="M27.4598 43.6766H27.8233L27.5967 43.4453L27.4598 43.6766Z" fill="black"/>
<path d="M28.6255 44.48L28.2951 44.1495H27.6294L28.2767 44.7969H28.4372L28.6255 44.48Z" fill="black"/>
<path d="M27.1789 43.0262H26.5086L27.1558 43.6783H27.4579L27.5948 43.447L27.1789 43.0262Z" fill="black"/>
<path d="M28.4372 44.7969L28.9425 44.7973L28.6262 44.481L28.4372 44.7969Z" fill="black"/>
<path d="M22.2648 38.0882L21.6176 37.4408H20.952L21.5992 38.0882H22.2648Z" fill="black"/>
<path d="M21.1482 36.9689L20.577 36.3928V36.9689H21.1482Z" fill="black"/>
<path d="M20.4163 36.3171H19.9253L19.9243 36.4067L20.4163 36.8977V36.3171Z" fill="black"/>
<path d="M20.4163 36.8977L20.4824 36.9685L20.577 36.9689V36.3928L20.5013 36.3171L20.4163 36.3171V36.8977Z" fill="black"/>
<path d="M51.1703 67.1283V67.4447H51.4866L51.1703 67.1283Z" fill="black"/>
<path d="M51.139 67.4459H51.1626V67.1296L51.139 67.106V67.7764V67.4459Z" fill="black"/>
<path d="M46.3452 62.2846V62.955L46.855 63.4649V62.7992L46.3452 62.2846Z" fill="black"/>
<path d="M45.4212 61.3549V62.0253L45.8744 62.4786V61.8081L45.4212 61.3549Z" fill="black"/>
<path d="M45.2293 61.1562V61.8267L45.4275 62.025V61.3545L45.2293 61.1562Z" fill="black"/>
<path d="M46.8585 62.8002V63.4659L46.9954 63.6076V62.9371L46.8585 62.8002Z" fill="black"/>
<path d="M51.8312 68.0921V67.7899L51.4866 67.4447H51.1703V67.7994L51.7981 68.4273V68.0921H51.8312Z" fill="black"/>
<path d="M51.139 67.4459V67.7764L51.1626 67.7994V67.4459H51.139Z" fill="black"/>
<path d="M19.8256 36.3213H19.9153V35.7405L19.8445 35.665C19.7996 35.6214 19.7395 35.5971 19.6769 35.5971C19.6144 35.5971 19.5543 35.6214 19.5094 35.665C19.4706 35.7043 19.4471 35.7562 19.4433 35.8114V35.8538C19.4471 35.909 19.4706 35.9609 19.5094 36.0002L19.8256 36.3213Z" fill="black"/>
<path d="M19.8361 36.3169L19.9258 36.4067L19.9253 36.3171L19.8361 36.3169Z" fill="black"/>
<path d="M32.401 48.9423L32.7314 49.2776L33.0666 48.9423L32.7314 48.6071L32.401 48.9423Z" fill="black"/>
<path d="M36.5295 52.4078C36.4858 52.3673 36.4285 52.3448 36.369 52.3448C36.3095 52.3448 36.2521 52.3673 36.2085 52.4078L36.0433 52.5778L36.3407 52.8752H36.4115L36.5437 52.743C36.5649 52.7202 36.5813 52.6933 36.5921 52.664C36.6029 52.6348 36.6078 52.6036 36.6065 52.5725C36.6052 52.5413 36.5977 52.5107 36.5845 52.4824C36.5712 52.4542 36.5526 52.4288 36.5295 52.4078Z" fill="black"/>
<path d="M36.3495 52.908L36.3863 52.875H36.3165L36.3495 52.908Z" fill="black"/>
<path d="M18.8078 55.76H14.6583V56.2322H18.8078V55.76Z" fill="black"/>
<path d="M3.89584 55.76H1.12482V56.2322H3.89584V55.76Z" fill="black"/>
<path d="M12.888 55.76H8.67716V56.2322H12.888V55.76Z" fill="black"/>
<path d="M6.90847 55.76H3.89584V56.2322H6.90847V55.76Z" fill="black"/>
<path d="M1.12012 55.76H0.468674V56.2322H1.12012V55.76Z" fill="black"/>
<path d="M8.67221 55.76H8.02548V56.2322H8.67221V55.76Z" fill="black"/>
<path d="M7.55342 55.76H7.12384V56.2322H7.55342V55.76Z" fill="black"/>
<path d="M7.127 55.76H6.90513V56.2322H7.127V55.76Z" fill="black"/>
<path d="M14.6583 55.76H14.0067L14.0056 56.2321L14.6583 56.2322V55.76Z" fill="black"/>
<path d="M13.5378 55.76H12.8863V56.2322H13.5378V55.76Z" fill="black"/>
<path d="M19.4522 55.7595L18.805 55.76V56.2322L19.4522 56.2317V55.7595Z" fill="black"/>
<path d="M0.473444 55.76H0.0580263V56.2322H0.473444V55.76Z" fill="black"/>
<path d="M14.0067 55.76H13.5335V56.2321H14.0056L14.0067 55.76Z" fill="black"/>
<path d="M19.9243 55.7595H19.4522V56.2317H19.9243V55.7595Z" fill="black"/>
<path d="M51.1418 55.76H46.9924V56.2322H51.1418V55.76Z" fill="black"/>
<path d="M57.1263 55.76H52.9155V56.2322H57.1263V55.76Z" fill="black"/>
<path d="M64.6786 55.76H61.9453V56.2322H64.6786V55.76Z" fill="black"/>
<path d="M61.9453 55.76H58.8967V56.2322H61.9453V55.76Z" fill="black"/>
<path d="M65.3329 55.76H64.6815V56.2322H65.3329V55.76Z" fill="black"/>
<path d="M57.7714 55.76H57.1247V56.2322H57.7714V55.76Z" fill="black"/>
<path d="M58.7032 55.76H58.2405V56.2322H58.7032V55.76Z" fill="black"/>
<path d="M58.8933 55.76H58.7092V56.2322H58.8933V55.76Z" fill="black"/>
<path d="M52.9132 55.76H52.2996V56.2322H52.9132V55.76Z" fill="black"/>
<path d="M51.8235 55.76H51.139V56.2322H51.8235V55.76Z" fill="black"/>
<path d="M46.9966 55.76H46.3452V56.2322H46.9966V55.76Z" fill="black"/>
<path d="M28.7364 43.6774L28.963 43.8993L29.0952 43.6774H28.7364Z" fill="black"/>
<path d="M25.3712 43.6774H23.6435V44.1496H25.3712V43.6774Z" fill="black"/>
<path d="M54.1742 44.1496H56.2749L56.0625 43.6774H54.415L54.1742 44.1496Z" fill="black"/>
<path d="M48.0663 43.6774L47.8538 44.1496H50.318L50.0773 43.6774H48.0663Z" fill="black"/>
<path d="M3.89584 43.6774H1.12482V44.1496H3.89584V43.6774Z" fill="black"/>
<path d="M9.76891 43.6774L9.55648 44.1496H11.6572L11.4211 43.6774H9.76891Z" fill="black"/>
<path d="M12.8871 43.6774H12.8729V44.1496H12.8871V43.6774Z" fill="black"/>
<path d="M42.1899 43.6774H40.4622V44.1496H42.1899V43.6774Z" fill="black"/>
<path d="M52.9627 43.6774H52.9155V44.1496H52.9627V43.6774Z" fill="black"/>
<path d="M64.6786 43.6774H61.9453V44.1496H64.6786V43.6774Z" fill="black"/>
<path d="M15.5198 44.1496H17.9793L17.7668 43.6774H15.7558L15.5198 44.1496Z" fill="black"/>
<path d="M6.90847 43.6774H3.89584V44.1496H6.90847V43.6774Z" fill="black"/>
<path d="M9.77236 43.6774H8.67716V44.1496H9.55993L9.77236 43.6774Z" fill="black"/>
<path d="M17.7694 43.6774L17.9819 44.1496H18.808V43.6774H17.7694Z" fill="black"/>
<path d="M23.6502 43.6774H20.577V44.1496H23.6502V43.6774Z" fill="black"/>
<path d="M11.4211 43.6774L11.6572 44.1496H12.8715V43.6774H11.4211Z" fill="black"/>
<path d="M14.6583 43.6774V44.1496H15.5222L15.7582 43.6774H14.6583Z" fill="black"/>
<path d="M61.9453 43.6774H58.8967V44.1496H61.9453V43.6774Z" fill="black"/>
<path d="M56.2749 44.1496H57.1245V43.6774H56.0625L56.2749 44.1496Z" fill="black"/>
<path d="M48.064 43.6774H46.9924V44.1496H47.8515L48.064 43.6774Z" fill="black"/>
<path d="M45.225 43.6774H42.1899V44.1496H45.225V43.6774Z" fill="black"/>
<path d="M52.9602 43.6774V44.1496H54.1742L54.415 43.6774H52.9602Z" fill="black"/>
<path d="M50.0722 43.6774L50.313 44.1496H51.1391V43.6774H50.0722Z" fill="black"/>
<path d="M39.2334 43.6774L38.766 44.1496H40.4607V43.6774H39.2334Z" fill="black"/>
<path d="M25.3712 43.6774V44.1496H26.7115L26.2395 43.6774H25.3712Z" fill="black"/>
<path d="M29.0952 43.6774L28.963 43.8993L29.2095 44.1496H36.2622L36.7342 43.6774H29.0952Z" fill="black"/>
<path d="M1.12012 43.6774H0.468674V44.1496H1.12012V43.6774Z" fill="black"/>
<path d="M7.55342 43.6774H7.12384V44.1496H7.55342V43.6774Z" fill="black"/>
<path d="M8.55892 43.6774H8.02548V44.1496H8.55892V43.6774Z" fill="black"/>
<path d="M7.127 43.6774H6.90513V44.1496H7.127V43.6774Z" fill="black"/>
<path d="M8.67887 43.6774H8.56557V44.1496H8.67887V43.6774Z" fill="black"/>
<path d="M13.5378 43.6774H12.8871V44.1496H13.5378V43.6774Z" fill="black"/>
<path d="M14.3088 43.6774H14.0067L14.0056 44.1495L14.3088 44.1496V43.6774Z" fill="black"/>
<path d="M14.6548 43.6774H14.3102V44.1496H14.6548V43.6774Z" fill="black"/>
<path d="M20.4163 43.6774H19.9253L19.9243 44.1495L20.4163 44.1496V43.6774Z" fill="black"/>
<path d="M19.4514 43.6774H18.9746V44.1496L19.4522 44.1495L19.4514 43.6774Z" fill="black"/>
<path d="M18.9796 43.6774H18.805V44.1496H18.9796V43.6774Z" fill="black"/>
<path d="M20.577 43.6774H20.4163V44.1496H20.577V43.6774Z" fill="black"/>
<path d="M37.0181 44.1496H37.1786L37.6501 43.6778L36.7396 43.6774L37.0181 44.1496Z" fill="black"/>
<path d="M38.3186 43.6774L37.8465 44.1496H38.6538L38.3753 43.6774H38.3186Z" fill="black"/>
<path d="M38.3777 43.6774L38.6562 44.1496H38.7695L39.2369 43.6774H38.3777Z" fill="black"/>
<path d="M36.2664 44.1496H37.0217L36.7432 43.6774H36.7396L36.2664 44.1496Z" fill="black"/>
<path d="M27.1786 44.1505H27.6271L27.3438 43.8672L27.1786 44.1505Z" fill="black"/>
<path d="M28.9682 43.8993L28.7416 43.6774H27.8258L28.2979 44.1496H28.8219L28.9682 43.8993Z" fill="black"/>
<path d="M27.1571 43.6774H26.2413L26.7133 44.1496H27.1807L27.3459 43.8663L27.1571 43.6774Z" fill="black"/>
<path d="M28.8168 44.1498L29.2095 44.1496L28.963 43.8993L28.8168 44.1498Z" fill="black"/>
<path d="M65.3329 43.6774H64.6815V44.1496H65.3329V43.6774Z" fill="black"/>
<path d="M57.7723 43.6774H57.272V44.1496H57.7723V43.6774Z" fill="black"/>
<path d="M58.7032 43.6774H58.2405V44.1496H58.7032V43.6774Z" fill="black"/>
<path d="M58.8933 43.6774H58.7092V44.1496H58.8933V43.6774Z" fill="black"/>
<path d="M57.2757 43.6774H57.1245V44.1496H57.2757V43.6774Z" fill="black"/>
<path d="M52.9132 43.6774H52.2996V44.1496H52.9132V43.6774Z" fill="black"/>
<path d="M51.8295 43.6774H51.5274V44.1496H51.8295V43.6774Z" fill="black"/>
<path d="M51.5214 43.6774H51.1391V44.1496H51.5214V43.6774Z" fill="black"/>
<path d="M45.8744 43.6774H45.4212V44.1496H45.8744V43.6774Z" fill="black"/>
<path d="M46.855 43.6774H46.3452V44.1496H46.855V43.6774Z" fill="black"/>
<path d="M46.9954 43.6774H46.8585V44.1496H46.9954V43.6774Z" fill="black"/>
<path d="M45.4228 43.6774H45.2293V44.1496H45.4228V43.6774Z" fill="black"/>
<path d="M0.472066 43.6783H0V44.1495H0.472066V43.6783Z" fill="black"/>
<path d="M14.0056 43.6783H13.5335V44.1495H14.0056V43.6783Z" fill="black"/>
<path d="M19.9243 43.6783H19.4522V44.1495H19.9243V43.6783Z" fill="black"/>
<path d="M37.6501 43.6778L37.177 44.1496H37.8426L38.3158 43.6778H37.6501Z" fill="black"/>
<path d="M27.8258 43.6774H27.4615L27.3482 43.8663L27.6315 44.1496H28.2979L27.8258 43.6774Z" fill="black"/>
<path d="M27.3459 43.8663L27.4579 43.6783L27.1571 43.6774L27.3459 43.8663Z" fill="black"/>
<path d="M49.7355 30.7322V30.548H50.9063L50.8118 30.7322H51.147V30.26H48.2957V30.7322H49.7355Z" fill="black"/>
<path d="M64.6786 30.26H61.9453V30.7322H64.6786V30.26Z" fill="black"/>
<path d="M3.89584 30.26H1.12482V30.7322H3.89584V30.26Z" fill="black"/>
<path d="M53.3215 30.7322L53.2271 30.548H54.4025V30.7322H55.8376V30.26H52.9155V30.7322H53.3215Z" fill="black"/>
<path d="M15.0265 30.7322L14.9321 30.548H16.1076V30.7322H17.5427V30.26H14.6583V30.7322H15.0265Z" fill="black"/>
<path d="M30.1816 30.7322L30.4601 30.26H23.6435V30.7322H30.1816Z" fill="black"/>
<path d="M42.1901 30.7322V30.26H35.3782L35.6567 30.7322H42.1901Z" fill="black"/>
<path d="M11.4382 30.7322V30.548H12.6089L12.5145 30.7322H12.8874V30.26H9.99838V30.7322H11.4382Z" fill="black"/>
<path d="M6.90847 30.26H3.89584V30.7322H6.90847V30.26Z" fill="black"/>
<path d="M18.8069 30.26H17.5427V30.7322H18.8069V30.26Z" fill="black"/>
<path d="M9.99838 30.26H8.67716V30.7322H9.99838V30.26Z" fill="black"/>
<path d="M23.6502 30.26H20.577V30.7322H23.6502V30.26Z" fill="black"/>
<path d="M12.6108 30.548H11.4401V30.7321H12.5164L12.6108 30.548Z" fill="black"/>
<path d="M16.1061 30.548H14.9306L15.025 30.7321H16.1061V30.548Z" fill="black"/>
<path d="M61.9453 30.26H58.8967V30.7322H61.9453V30.26Z" fill="black"/>
<path d="M57.1234 30.26H55.8347V30.7322H57.1234V30.26Z" fill="black"/>
<path d="M48.2906 30.26H46.9924V30.7322H48.2906V30.26Z" fill="black"/>
<path d="M45.225 30.26H42.1901V30.7322H45.225V30.26Z" fill="black"/>
<path d="M54.4025 30.548H53.2271L53.3215 30.7322H54.4025V30.548Z" fill="black"/>
<path d="M50.9037 30.548H49.733V30.7321H50.8093L50.9037 30.548Z" fill="black"/>
<path d="M35.6555 30.7322L35.377 30.26H33.9231V30.7322H35.6555Z" fill="black"/>
<path d="M32.1511 30.7322V30.26H30.4601L30.1816 30.7322H32.1511Z" fill="black"/>
<path d="M1.12012 30.26H0.468674V30.7322H1.12012V30.26Z" fill="black"/>
<path d="M32.8025 30.26H32.1511V30.7322L32.8027 30.7321L32.8025 30.26Z" fill="black"/>
<path d="M33.9273 30.26H33.2758L33.2748 30.7321L33.9273 30.7322V30.26Z" fill="black"/>
<path d="M8.55892 30.26H8.02548V30.7322H8.55892V30.26Z" fill="black"/>
<path d="M7.55342 30.26H7.12384V30.7322H7.55342V30.26Z" fill="black"/>
<path d="M7.127 30.26H6.90513V30.7322H7.127V30.26Z" fill="black"/>
<path d="M8.67887 30.26H8.56557V30.7322H8.67887V30.26Z" fill="black"/>
<path d="M13.5378 30.26H12.8874V30.7322H13.5378V30.26Z" fill="black"/>
<path d="M14.6583 30.26H14.0067L14.0056 30.7321L14.6583 30.7322V30.26Z" fill="black"/>
<path d="M19.4514 30.26H18.9746V30.7322L19.4522 30.7321L19.4514 30.26Z" fill="black"/>
<path d="M20.4163 30.26H19.9253L19.9243 30.7321L20.4163 30.7322V30.26Z" fill="black"/>
<path d="M18.9796 30.26H18.805V30.7322H18.9796V30.26Z" fill="black"/>
<path d="M20.577 30.26H20.4163V30.7322H20.577V30.26Z" fill="black"/>
<path d="M65.3329 30.26H64.6815V30.7322H65.3329V30.26Z" fill="black"/>
<path d="M57.7723 30.26H57.272V30.7322H57.7723V30.26Z" fill="black"/>
<path d="M58.7032 30.26H58.2405V30.7322H58.7032V30.26Z" fill="black"/>
<path d="M58.8933 30.26H58.7092V30.7322H58.8933V30.26Z" fill="black"/>
<path d="M57.2757 30.26H57.1247V30.7322H57.2757V30.26Z" fill="black"/>
<path d="M52.9132 30.26H52.2996V30.7322H52.9132V30.26Z" fill="black"/>
<path d="M51.8235 30.26H51.139V30.7322H51.8235V30.26Z" fill="black"/>
<path d="M45.8744 30.26H45.4212V30.7322H45.8744V30.26Z" fill="black"/>
<path d="M46.855 30.26H46.3452V30.7322H46.855V30.26Z" fill="black"/>
<path d="M46.9954 30.26H46.8585V30.7322H46.9954V30.26Z" fill="black"/>
<path d="M45.4228 30.26H45.2293V30.7322H45.4228V30.26Z" fill="black"/>
<path d="M0.472066 30.7321V30.26H0V30.7321H0.472066Z" fill="black"/>
<path d="M33.2758 30.26H32.8025L32.8027 30.7321H33.2748L33.2758 30.26Z" fill="black"/>
<path d="M14.0067 30.26H13.5335V30.7321H14.0056L14.0067 30.26Z" fill="black"/>
<path d="M19.9253 30.26H19.4514L19.4522 30.7321H19.9243L19.9253 30.26Z" fill="black"/>
<path d="M8.02441 56.8839H7.55235V67.4457H8.02441V56.8839Z" fill="black"/>
<path d="M8.02441 44.7969H7.55235V55.1132H8.02441V44.7969Z" fill="black"/>
<path d="M8.02441 38.0915H7.55235V43.0301H8.02441V38.0915Z" fill="black"/>
<path d="M8.02441 15.9297H7.55235V22.2894H8.02441V15.9297Z" fill="black"/>
<path d="M8.02441 69.2165H7.55235V73.6782H8.02441V69.2165Z" fill="black"/>
<path d="M8.02441 24.0603H7.55235V29.6079H8.02441V24.0603Z" fill="black"/>
<path d="M8.02441 31.3828H7.55235V36.3214H8.02441V31.3828Z" fill="black"/>
<path d="M7.78838 74.3244H8.02441V73.654H7.55235V74.5416C7.55814 74.4827 7.5854 74.428 7.62894 74.388C7.67247 74.3479 7.72923 74.3253 7.78838 74.3244Z" fill="black"/>
<path d="M7.55235 74.5602V74.7916H7.76478C7.70754 74.7848 7.65463 74.7578 7.61565 74.7153C7.57667 74.6729 7.55421 74.6178 7.55235 74.5602Z" fill="black"/>
<path d="M8.02548 68.5647H7.55342L7.55235 69.2165H8.02441L8.02548 68.5647Z" fill="black"/>
<path d="M8.02441 67.4457H7.55235V68.0968H8.02441V67.4457Z" fill="black"/>
<path d="M8.02548 56.2322H7.55342L7.55235 56.8839H8.02441L8.02548 56.2322Z" fill="black"/>
<path d="M8.02441 55.1132H7.55235V55.7595H8.02441V55.1132Z" fill="black"/>
<path d="M8.02548 44.1496H7.55342L7.55235 44.8011H8.02441L8.02548 44.1496Z" fill="black"/>
<path d="M8.02441 43.0268H7.55235V43.6783H8.02441V43.0268Z" fill="black"/>
<path d="M8.02441 29.6127H7.55235V30.2643H8.02441V29.6127Z" fill="black"/>
<path d="M8.02548 30.7322H7.55342L7.55235 31.3828H8.02441L8.02548 30.7322Z" fill="black"/>
<path d="M8.02441 23.4141H7.55235V24.0603H8.02441V23.4141Z" fill="black"/>
<path d="M8.02441 22.2894H7.55235V22.9406H8.02441V22.2894Z" fill="black"/>
<path d="M49.7308 36.9687H48.2957V37.4409H49.7308V36.9687Z" fill="black"/>
<path d="M11.4335 36.9687H9.99838V37.4409H11.4335V36.9687Z" fill="black"/>
<path d="M55.837 36.9687H54.4019V37.4409H55.837V36.9687Z" fill="black"/>
<path d="M34.7067 37.4409L34.4329 36.9687H33.9231V37.4409H34.7067Z" fill="black"/>
<path d="M26.2351 37.4409L26.5136 36.9687H23.6435V37.4409H26.2351Z" fill="black"/>
<path d="M42.1849 37.4409V36.9687H39.3195L39.5933 37.4409H42.1849Z" fill="black"/>
<path d="M17.5441 36.9687H16.109V37.4409H17.5441V36.9687Z" fill="black"/>
<path d="M32.1533 37.4409V36.9687H31.4074L31.1289 37.4409H32.1533Z" fill="black"/>
<path d="M18.8069 36.9687H17.5418V37.4409H18.8069V36.9687Z" fill="black"/>
<path d="M9.99838 36.9687H8.67716V37.4409H9.99838V36.9687Z" fill="black"/>
<path d="M23.6493 37.4409V36.9687H22.0678L22.5399 37.4409H23.6493Z" fill="black"/>
<path d="M16.1076 36.9687H14.6583V37.4409H16.1076V36.9687Z" fill="black"/>
<path d="M12.8804 36.9687H11.4312V37.4409H12.8804V36.9687Z" fill="black"/>
<path d="M57.1234 36.9687H55.8347V37.4409H57.1234V36.9687Z" fill="black"/>
<path d="M48.2906 36.9687H46.9924V37.4409H48.2906V36.9687Z" fill="black"/>
<path d="M42.9543 37.4409L43.4217 36.9687H42.1896V37.4409H42.9543Z" fill="black"/>
<path d="M51.1492 36.9687H49.733V37.4409H51.1492V36.9687Z" fill="black"/>
<path d="M54.4019 36.9687H52.9155V37.4409H54.4019V36.9687Z" fill="black"/>
<path d="M31.1274 37.4409L31.4059 36.9687H26.5153L26.2368 37.4409H31.1274Z" fill="black"/>
<path d="M39.5963 37.4409L39.3225 36.9687H34.4329L34.7067 37.4409H39.5963Z" fill="black"/>
<path d="M32.7647 37.4409L32.9158 37.1812L33.0716 37.4409H33.9213V36.9687L33.2748 36.9685L33.2745 37.0396H32.8025L32.8027 36.9685L32.151 36.9687V37.4409H32.7647Z" fill="black"/>
<path d="M32.9181 37.1808L32.767 37.4405H33.0738L32.9181 37.1808Z" fill="black"/>
<path d="M8.02441 37.4406H8.56257V36.9685H8.02441V36.3169H7.55235V38.0875H8.02441V37.4406Z" fill="black"/>
<path d="M8.67887 36.9687H8.56557V37.4409H8.67887V36.9687Z" fill="black"/>
<path d="M14.6583 36.9687H14.0067V37.4409H14.6583V36.9687Z" fill="black"/>
<path d="M13.5378 36.9687H12.8863V37.4409H13.5378V36.9687Z" fill="black"/>
<path d="M19.9253 37.327V37.4403H20.0386L19.9253 37.327Z" fill="black"/>
<path d="M19.4522 36.9682L18.9746 36.9687V37.4409L19.4522 37.4408V36.9682Z" fill="black"/>
<path d="M18.9796 36.9687H18.805V37.4409H18.9796V36.9687Z" fill="black"/>
<path d="M43.8687 37.4409L44.3366 36.9685L43.4202 36.9687L42.9528 37.4409H43.8687Z" fill="black"/>
<path d="M45.2266 36.9687H45.0095L44.5374 37.4409H45.2266V36.9687Z" fill="black"/>
<path d="M20.9547 37.4413L20.577 37.0636V37.4413H20.9547Z" fill="black"/>
<path d="M22.5399 37.4409L22.0678 36.9687H21.1528L21.6249 37.4409H22.5399Z" fill="black"/>
<path d="M20.0386 37.4403L20.4163 37.4409V36.9687L19.9243 36.9685L19.9253 37.327L20.0386 37.4403Z" fill="black"/>
<path d="M20.4163 37.4409L20.577 37.4413V37.0636L20.4824 36.9685L20.4163 36.9687V37.4409Z" fill="black"/>
<path d="M57.7723 36.9687H57.272V37.4409H57.7723V36.9687Z" fill="black"/>
<path d="M57.2757 36.9687H57.1247V37.4409H57.2757V36.9687Z" fill="black"/>
<path d="M52.9132 36.9687H52.2996V37.4409H52.9132V36.9687Z" fill="black"/>
<path d="M51.8235 36.9687H51.139V37.4409H51.8235V36.9687Z" fill="black"/>
<path d="M46.855 36.9687H46.3452V37.4409H46.855V36.9687Z" fill="black"/>
<path d="M45.8728 37.4405V37.0156L45.448 37.4405H45.8728Z" fill="black"/>
<path d="M46.9954 36.9687H46.8585V37.4409H46.9954V36.9687Z" fill="black"/>
<path d="M45.4495 37.4409L45.8744 37.0159V36.9687H45.4212V37.4409H45.4495Z" fill="black"/>
<path d="M45.4228 36.9687H45.2293V37.4409H45.4228V36.9687Z" fill="black"/>
<path d="M33.2748 36.9685H32.8027L32.8025 37.0396H33.2745L33.2748 36.9685Z" fill="black"/>
<path d="M14.0067 36.9687H13.5335V37.4409H14.0067V36.9687Z" fill="black"/>
<path d="M8.02441 74.3244H7.78838C7.72616 74.3256 7.66682 74.3512 7.62282 74.3952C7.57881 74.4392 7.55355 74.498 7.55235 74.5602C7.55421 74.6178 7.57667 74.6729 7.61565 74.7153C7.65463 74.7578 7.70754 74.7848 7.76478 74.7916L8.02548 74.7924L8.02441 74.3244Z" fill="black"/>
<path d="M19.9243 37.3276L19.5655 36.9682H19.4522V37.4408H19.9243V37.3276Z" fill="black"/>
<path d="M19.927 36.9687H19.5683L19.927 37.3276V36.9687Z" fill="black"/>
<path d="M8.02548 68.0926H7.55342V68.5647H8.02548V68.0926Z" fill="black"/>
<path d="M44.533 37.4408L45.0056 36.9687H44.3352L43.8687 37.4409L44.533 37.4408Z" fill="black"/>
<path d="M20.577 37.0636L20.9547 37.4413L21.6203 37.4409L21.1482 36.9689H20.577V37.0636Z" fill="black"/>
<path d="M20.577 36.9689L20.4824 36.9685L20.577 37.0636V36.9689Z" fill="black"/>
<path d="M8.02441 55.7595H7.55235L7.55342 56.2322H8.02548L8.02441 55.7595Z" fill="black"/>
<path d="M8.02441 43.6783H7.55235L7.55342 44.1496H8.02548L8.02441 43.6783Z" fill="black"/>
<path d="M8.02548 30.26H7.55342V30.7322H8.02548V30.26Z" fill="black"/>
<path d="M65.8008 44.7969H65.3287V55.1132H65.8008V44.7969Z" fill="black"/>
<path d="M65.8008 24.0603H65.3287V29.6079H65.8008V24.0603Z" fill="black"/>
<path d="M65.8008 69.2165H65.3287V78.8812H65.8008V69.2165Z" fill="black"/>
<path d="M65.8008 56.8839H65.3287V67.4457H65.8008V56.8839Z" fill="black"/>
<path d="M65.8008 6.05692H65.3287V22.2892H65.8008V6.05692Z" fill="black"/>
<path d="M65.8008 31.3828H65.3287V43.0258H65.8008V31.3828Z" fill="black"/>
<path d="M65.3287 55.7595H65.7724V56.2317H65.3287V56.8839H65.8008V55.1132H65.3287V55.7595Z" fill="black"/>
<path d="M65.3287 43.6783H65.8008V44.1505H65.3287V44.7969H65.8008V43.0258H65.3287V43.6783Z" fill="black"/>
<path d="M65.8008 30.7321H65.3287V31.3828H65.8008V30.7321Z" fill="black"/>
<path d="M65.8008 29.6127H65.3287V30.2643H65.8008V29.6127Z" fill="black"/>
<path d="M65.3995 22.9406V23.4128H65.3287V24.0603H65.8008V22.2892H65.3287V22.9406H65.3995Z" fill="black"/>
<path d="M65.8008 78.8812H65.3287V79.5321H65.8008V78.8812Z" fill="black"/>
<path d="M65.8008 68.5647H65.3287V69.2165H65.8008V68.5647Z" fill="black"/>
<path d="M65.8008 67.4457H65.3287V68.0968H65.8008V67.4457Z" fill="black"/>
<path d="M65.7724 55.7595H65.3287V56.2317H65.7724V55.7595Z" fill="black"/>
<path d="M65.8008 43.6783H65.3287V44.1505H65.8008V43.6783Z" fill="black"/>
<path d="M65.8008 30.26H65.3287V30.7321H65.8008V30.26Z" fill="black"/>
<path d="M58.2439 15.6942H57.7719V22.29H58.2439V15.6942Z" fill="black"/>
<path d="M58.2439 38.0882H57.7719V43.0268H58.2439V38.0882Z" fill="black"/>
<path d="M58.2439 56.8839H57.7719V67.4457H58.2439V56.8839Z" fill="black"/>
<path d="M58.2439 69.2165H57.7719V73.6782H58.2439V69.2165Z" fill="black"/>
<path d="M58.2439 31.3828H57.7719V36.3214H58.2439V31.3828Z" fill="black"/>
<path d="M58.2439 44.7969H57.7719V55.1132H58.2439V44.7969Z" fill="black"/>
<path d="M58.2439 24.0603H57.7719V29.6079H58.2439V24.0603Z" fill="black"/>
<path d="M58.2439 56.2321L57.7714 56.2322L57.7719 56.879H58.2439V56.2321Z" fill="black"/>
<path d="M58.2439 55.1132H57.7719V55.7643H58.2439V55.1132Z" fill="black"/>
<path d="M58.2439 43.0268H57.7719L57.7723 43.6774L58.2439 43.6783V43.0268Z" fill="black"/>
<path d="M58.2439 44.1495L57.7723 44.1496L57.7719 44.8011H58.2439V44.1495Z" fill="black"/>
<path d="M58.2439 30.7321L57.7723 30.7322L57.7719 31.3828H58.2439V30.7321Z" fill="black"/>
<path d="M58.2439 29.6127H57.7719V30.2643H58.2439V29.6127Z" fill="black"/>
<path d="M58.2439 22.29H57.7719V22.9406H58.2439V22.29Z" fill="black"/>
<path d="M58.2439 23.4141H57.7719V24.0603H58.2439V23.4141Z" fill="black"/>
<path d="M57.7723 36.9687L58.2439 36.9685V37.4406L57.7723 37.4409L57.7719 38.0882H58.2439V36.3169H57.7719L57.7723 36.9687Z" fill="black"/>
<path d="M58.2439 73.673H57.7719V74.3245H58.2439V73.673Z" fill="black"/>
<path d="M58.2439 67.4457H57.7719V68.0968H58.2439V67.4457Z" fill="black"/>
<path d="M58.2439 68.5647H57.7719V69.2165H58.2439V68.5647Z" fill="black"/>
<path d="M58.2439 55.76H57.7714V56.2322L58.2439 56.2321V55.76Z" fill="black"/>
<path d="M58.2439 43.6783L57.7723 43.6774V44.1496L58.2439 44.1495V43.6783Z" fill="black"/>
<path d="M58.2439 30.26H57.7723V30.7322L58.2439 30.7321V30.26Z" fill="black"/>
<path d="M58.2439 36.9685L57.7723 36.9687V37.4409L58.2439 37.4406V36.9685Z" fill="black"/>
<path d="M5.47726 23.413L5.61888 22.9408H1.12482V23.413H5.47726Z" fill="black"/>
<path d="M48.2957 23.3752V23.413H49.7827L50.0188 22.9408H48.4326L48.3713 23.0589C48.323 23.1574 48.2972 23.2655 48.2957 23.3752Z" fill="black"/>
<path d="M43.6948 23.413L43.8317 22.9408H33.9231V23.413H43.6948Z" fill="black"/>
<path d="M9.99838 23.3752V23.413H11.4807L11.7214 22.9408H10.1353L10.0739 23.0589C10.0256 23.1574 9.99983 23.2655 9.99838 23.3752Z" fill="black"/>
<path d="M16.0502 23.413H17.5325V23.3752C17.531 23.2655 17.5052 23.1574 17.4569 23.0589L17.3956 22.9408H15.8189L16.0502 23.413Z" fill="black"/>
<path d="M64.6742 23.413V22.9408H60.2179L60.3595 23.413H64.6742Z" fill="black"/>
<path d="M32.1548 23.413V22.9408H22.0054L22.1423 23.413H32.1548Z" fill="black"/>
<path d="M54.3525 23.413H55.8348V23.3752C55.8356 23.2652 55.8097 23.1567 55.7593 23.0589L55.6979 22.9408H54.1118L54.3525 23.413Z" fill="black"/>
<path d="M6.90715 23.413V22.9408H5.61888L5.47726 23.413H6.90715Z" fill="black"/>
<path d="M9.99838 23.413V23.3752C9.99983 23.2655 10.0256 23.1574 10.0739 23.0589L10.1353 22.9408H8.67716V23.413H9.99838Z" fill="black"/>
<path d="M17.5411 23.3752V23.413H18.8062V22.9408H17.39L17.4514 23.0589C17.5046 23.1563 17.5353 23.2644 17.5411 23.3752Z" fill="black"/>
<path d="M12.8915 22.9408H11.7255L11.4847 23.413H12.8915V22.9408Z" fill="black"/>
<path d="M14.6583 23.413H16.0604L15.8189 22.9408H14.6583V23.413Z" fill="black"/>
<path d="M22.1396 23.413L22.0027 22.9408H20.577V23.413H22.1396Z" fill="black"/>
<path d="M60.3648 23.413L60.2232 22.9408H58.8967V23.413H60.3648Z" fill="black"/>
<path d="M48.294 23.413V23.3752C48.2954 23.2655 48.3212 23.1574 48.3695 23.0589L48.4309 22.9408H47.0147V23.413H48.294Z" fill="black"/>
<path d="M55.8374 23.3752V23.413H57.1214V22.9408H55.7052L55.7666 23.0589C55.8154 23.1571 55.8397 23.2656 55.8374 23.3752Z" fill="black"/>
<path d="M52.9155 23.413H54.3553L54.1146 22.9408H52.9155V23.413Z" fill="black"/>
<path d="M51.1419 22.9408H50.0137L49.7776 23.413H51.1419V22.9408Z" fill="black"/>
<path d="M45.2188 23.413V22.9408H43.8262L43.6893 23.413H45.2188Z" fill="black"/>
<path d="M1.12012 22.9408H0.468674V23.413H1.12012V22.9408Z" fill="black"/>
<path d="M32.8027 23.4141L32.8025 23.3422H33.2745L33.2748 23.4141L33.9213 23.413V22.9408H32.151V23.413L32.8027 23.4141Z" fill="black"/>
<path d="M7.55235 22.9406L7.12384 22.9408V23.413H7.55342L7.55235 22.9406Z" fill="black"/>
<path d="M8.55892 22.9408L8.02441 22.9406L8.02548 23.413H8.55892V22.9408Z" fill="black"/>
<path d="M7.127 22.9408H6.90513V23.413H7.127V22.9408Z" fill="black"/>
<path d="M8.67887 22.9408H8.56557V23.413H8.67887V22.9408Z" fill="black"/>
<path d="M13.5378 22.9408H12.8863V23.413H13.5378V22.9408Z" fill="black"/>
<path d="M14.6583 22.9408H14.0067V23.413H14.6583V22.9408Z" fill="black"/>
<path d="M19.4514 23.413V23.1769C19.4514 23.1143 19.4763 23.0543 19.5205 23.01C19.5648 22.9657 19.6248 22.9408 19.6874 22.9408H18.9746V23.413H19.4514Z" fill="black"/>
<path d="M19.9245 23.1769L19.9243 23.4141L20.3966 23.413V22.9408H19.6943C19.725 22.9408 19.7545 22.947 19.7829 22.9589C19.8112 22.9708 19.8369 22.9883 19.8585 23.0103C19.88 23.0322 19.897 23.0583 19.9083 23.0869C19.9197 23.1155 19.9252 23.1461 19.9245 23.1769Z" fill="black"/>
<path d="M18.9796 22.9408H18.805V23.413H18.9796V22.9408Z" fill="black"/>
<path d="M20.577 22.9408H20.4163V23.413H20.577V22.9408Z" fill="black"/>
<path d="M65.3329 22.9408H64.6815V23.413H65.3329V22.9408Z" fill="black"/>
<path d="M58.7032 22.9408H58.2405V23.413H58.7032V22.9408Z" fill="black"/>
<path d="M57.7719 22.9406L57.272 22.9408V23.413H57.7723L57.7719 22.9406Z" fill="black"/>
<path d="M58.8933 22.9408H58.7092V23.413H58.8933V22.9408Z" fill="black"/>
<path d="M57.2757 22.9408H57.1247V23.413H57.2757V22.9408Z" fill="black"/>
<path d="M52.2985 44.7969H51.8264V55.1132H52.2985V44.7969Z" fill="black"/>
<path d="M52.0624 31.5103L52.2985 31.973V31.3828H51.8264V31.9824L52.0624 31.5103Z" fill="black"/>
<path d="M52.2985 69.2165H51.8264V69.3487H52.2985V69.2165Z" fill="black"/>
<path d="M52.2985 29.6131V24.8917H51.8264V29.6131H52.2985Z" fill="black"/>
<path d="M52.2985 56.8839H51.8264V66.8697L52.2985 67.3466V56.8839Z" fill="black"/>
<path d="M52.2985 38.0882H51.8264V43.0268H52.2985V38.0882Z" fill="black"/>
<path d="M52.2985 75.443H51.8264V78.8755H52.2985V75.443Z" fill="black"/>
<path d="M52.2985 69.3487H51.8264V73.6777H52.2985V69.3487Z" fill="black"/>
<path d="M52.2985 24.8866V24.0792H51.8264V24.9055H52.0624L52.2985 24.8866Z" fill="black"/>
<path d="M52.2985 36.3164V31.973L52.0624 31.5103L51.8264 31.9824V36.3164H52.2985Z" fill="black"/>
<path d="M52.2985 67.3466L51.8264 66.8697V67.4454H52.2985V67.3466Z" fill="black"/>
<path d="M52.2996 56.2322L51.8264 56.2321V56.8839H52.2985L52.2996 56.2322Z" fill="black"/>
<path d="M52.2985 55.1132H51.8264V55.7643H52.2985V55.1132Z" fill="black"/>
<path d="M52.2985 43.0268H51.8264V43.6783H52.2985V43.0268Z" fill="black"/>
<path d="M52.2996 44.1496L51.8264 44.1495V44.8011H52.2985L52.2996 44.1496Z" fill="black"/>
<path d="M52.2996 30.7322L51.8264 30.7321V31.3828H52.2985L52.2996 30.7322Z" fill="black"/>
<path d="M52.2985 29.6131H51.8264V30.2643H52.2985V29.6131Z" fill="black"/>
<path d="M51.8235 24.0598H52.2956V23.413H52.9093V22.9408H51.139V23.413H51.8235V24.0598Z" fill="black"/>
<path d="M52.2985 38.0882V37.4877H51.8264V38.0882H52.2985Z" fill="black"/>
<path d="M52.2985 36.3164H51.8264V36.9685L52.2996 36.9687L52.2985 36.3164Z" fill="black"/>
<path d="M52.2985 37.478V37.4308H51.8264V37.478H52.2985Z" fill="black"/>
<path d="M46.855 22.9408H46.3452V23.413H46.855V22.9408Z" fill="black"/>
<path d="M45.8744 22.9408H45.4212V23.413H45.8744V22.9408Z" fill="black"/>
<path d="M46.9954 22.9408H46.8585V23.413H46.9954V22.9408Z" fill="black"/>
<path d="M45.4228 22.9408H45.2293V23.413H45.4228V22.9408Z" fill="black"/>
<path d="M52.2985 74.7957H51.8264V75.4473H52.2985V74.7957Z" fill="black"/>
<path d="M52.2985 73.673H51.8264V74.3245H52.2985V73.673Z" fill="black"/>
<path d="M52.2985 78.8805H51.8264V79.5321H52.2985V78.8805Z" fill="black"/>
<path d="M52.0294 69.2168C51.9607 69.217 51.8924 69.2075 51.8264 69.1885V69.2165H52.2985V69.1696C52.2117 69.199 52.121 69.2149 52.0294 69.2168Z" fill="black"/>
<path d="M51.8264 67.4454V67.7899L52.1238 68.0921H52.2985V67.4454H51.8264Z" fill="black"/>
<path d="M51.8264 68.5647V69.1885C51.8924 69.2075 51.9607 69.217 52.0294 69.2168C52.121 69.2149 52.2117 69.199 52.2985 69.1696V68.5647H51.8264Z" fill="black"/>
<path d="M0.472066 22.9406H0V23.4141H0.472066V22.9406Z" fill="black"/>
<path d="M33.2745 23.3422H32.8025L32.8027 23.4123H33.2748L33.2745 23.3422Z" fill="black"/>
<path d="M14.0067 22.9408H13.5335V23.4141H14.0056L14.0067 22.9408Z" fill="black"/>
<path d="M19.4514 23.1769L19.4522 23.4141H19.9243L19.9245 23.1769C19.9252 23.1461 19.9197 23.1155 19.9083 23.0869C19.897 23.0583 19.88 23.0322 19.8585 23.0103C19.8369 22.9883 19.8112 22.9708 19.7829 22.9589C19.7545 22.947 19.7237 22.9409 19.693 22.9409C19.6616 22.9403 19.6304 22.9459 19.6012 22.9575C19.572 22.9691 19.5454 22.9864 19.523 23.0083C19.5006 23.0303 19.4828 23.0566 19.4706 23.0855C19.4585 23.1145 19.4514 23.1455 19.4514 23.1769Z" fill="black"/>
<path d="M51.8264 68.0923L52.1238 68.0921L51.8264 67.7899V68.0923Z" fill="black"/>
<path d="M52.2996 55.76H51.8264V56.2321L52.2996 56.2322V55.76Z" fill="black"/>
<path d="M52.2985 43.6783H51.8264V44.1495L52.2996 44.1496L52.2985 43.6783Z" fill="black"/>
<path d="M52.2996 30.26H51.8264V30.7321L52.2996 30.7322V30.26Z" fill="black"/>
<path d="M8.02441 22.9406H7.55235V23.4141H8.02441V22.9406Z" fill="black"/>
<path d="M52.2996 36.9687L51.8264 36.9685V37.4409H52.2996V36.9687Z" fill="black"/>
<path d="M65.4042 22.9408L65.3287 22.9406V23.4128L65.4042 23.413V22.9408Z" fill="black"/>
<path d="M58.2439 22.9406H57.7719V23.4141H58.2439V22.9406Z" fill="black"/>
<path d="M46.3486 38.0882H45.8765V43.0268H46.3486V38.0882Z" fill="black"/>
<path d="M46.3486 70.0948C46.2474 70.1333 46.1404 70.154 46.0323 70.1562C45.9804 70.1608 45.9283 70.1608 45.8765 70.1562V73.6548H46.3486V70.0948Z" fill="black"/>
<path d="M46.3486 34.6833V31.3783H45.8765V34.6833C46.0306 34.6385 46.1944 34.6385 46.3486 34.6833Z" fill="black"/>
<path d="M46.3486 44.7969H45.8765V55.1132H46.3486V44.7969Z" fill="black"/>
<path d="M45.8765 63.3995V67.8518L46.3486 68.3287V63.8717L45.8765 63.3995Z" fill="black"/>
<path d="M45.8765 56.8839V60.8877L46.3486 61.3645V56.8839H45.8765Z" fill="black"/>
<path d="M46.3486 24.0603H45.8765V29.6079H46.3486V24.0603Z" fill="black"/>
<path d="M45.9426 35.3631C45.9864 35.3192 46.0458 35.2946 46.1078 35.2946C46.1698 35.2946 46.2292 35.3192 46.273 35.3631C46.3168 35.4069 46.3415 35.4663 46.3415 35.5283C46.3415 35.5903 46.3168 35.6497 46.273 35.6936L45.8765 36.0949V36.3168H46.3486V34.6833C46.1944 34.6385 46.0306 34.6385 45.8765 34.6833V35.4103L45.9426 35.3631Z" fill="black"/>
<path d="M46.3486 70.0948V68.3287L45.8765 67.856V68.7767L46.2022 69.1072C46.2458 69.1521 46.2701 69.2122 46.2701 69.2748C46.2701 69.3374 46.2458 69.3975 46.2022 69.4424C46.1556 69.4846 46.0951 69.5082 46.0323 69.5085C45.9736 69.5079 45.9176 69.4841 45.8765 69.4424V70.1412C45.9283 70.1458 45.9804 70.1458 46.0323 70.1412C46.1396 70.1435 46.2466 70.1284 46.3486 70.0948Z" fill="black"/>
<path d="M45.8765 62.4788V63.3995L46.3486 63.8717V62.9556L45.8765 62.4788Z" fill="black"/>
<path d="M45.8765 60.8877V61.809L46.3486 62.2859V61.3645L45.8765 60.8877Z" fill="black"/>
<path d="M45.9001 56.2317V55.7595H46.3486V55.1132H45.8765V56.8839H46.3486V56.2317H45.9001Z" fill="black"/>
<path d="M46.3486 43.0268H45.8765V43.6783H46.3486V43.0268Z" fill="black"/>
<path d="M46.3486 44.1495H45.8765V44.8011H46.3486V44.1495Z" fill="black"/>
<path d="M46.3486 29.6127H45.8765V30.2643H46.3486V29.6127Z" fill="black"/>
<path d="M46.3486 30.7321H45.8765V31.3837H46.3486V30.7321Z" fill="black"/>
<path d="M46.3486 23.4141H45.8765V24.0603H46.3486V23.4141Z" fill="black"/>
<path d="M46.3486 37.4408H45.8765V38.0924H46.3486V37.4408Z" fill="black"/>
<path d="M46.346 36.9696V36.5446L45.9211 36.9696H46.346Z" fill="black"/>
<path d="M45.9237 36.9685L46.3486 36.5436V36.3168H45.8765V36.9685H45.9237Z" fill="black"/>
<path d="M46.3486 74.3245V73.673H45.8765V74.7967V74.3245H46.3486Z" fill="black"/>
<path d="M46.2641 35.6936C46.3079 35.6497 46.3325 35.5903 46.3325 35.5283C46.3325 35.4663 46.3079 35.4069 46.2641 35.3631C46.2203 35.3192 46.1608 35.2946 46.0989 35.2946C46.0369 35.2946 45.9775 35.3192 45.9336 35.3631L45.8676 35.4292V36.0949L46.2641 35.6936Z" fill="black"/>
<path d="M46.2022 69.438C46.2458 69.3931 46.2701 69.333 46.2701 69.2704C46.2701 69.2078 46.2458 69.1477 46.2022 69.1028L45.8765 68.7723V69.438C45.9176 69.4798 45.9736 69.5035 46.0323 69.5041C46.0951 69.5038 46.1556 69.4802 46.2022 69.438Z" fill="black"/>
<path d="M45.8765 61.809V62.4788L46.3486 62.9556V62.2859L45.8765 61.809Z" fill="black"/>
<path d="M46.3425 55.76H45.8988V56.2322H46.3425V55.76Z" fill="black"/>
<path d="M46.3486 43.6783H45.8765V44.1495H46.3486V43.6783Z" fill="black"/>
<path d="M46.3486 30.26H45.8765V30.7321H46.3486V30.26Z" fill="black"/>
<path d="M45.8765 37.0159V37.4408H46.3486V36.9687L45.9237 36.9685L45.8765 37.0159Z" fill="black"/>
<path d="M45.9237 36.9685H45.8765V37.0159L45.9237 36.9685Z" fill="black"/>
<path d="M46.3486 22.9408H45.8765V23.4141H46.3486V22.9408Z" fill="black"/>
<path d="M57.1263 74.3247H52.9155V74.7969H57.1263V74.3247Z" fill="black"/>
<path d="M51.1418 74.3247H46.9924V74.7969H51.1418V74.3247Z" fill="black"/>
<path d="M57.7721 74.7922L57.7719 74.3245L57.2764 74.3247V74.7969H58.2441L58.2439 74.3245L58.2441 74.7922H57.7721Z" fill="black"/>
<path d="M57.2764 74.3247H57.1247V74.7969H57.2764V74.3247Z" fill="black"/>
<path d="M51.8235 74.3247H51.139V74.7969H51.8235V74.3247Z" fill="black"/>
<path d="M52.9132 74.3247L52.2985 74.3245L52.2996 74.7969H52.9132V74.3247Z" fill="black"/>
<path d="M46.855 74.3247H46.3452V74.7969H46.855V74.3247Z" fill="black"/>
<path d="M46.9954 74.3247H46.8585V74.7969H46.9954V74.3247Z" fill="black"/>
<path d="M58.2439 74.3245H57.7719L57.7721 74.7922H58.2441L58.2439 74.3245Z" fill="black"/>
<path d="M52.2985 74.3245H51.8264V74.7969H52.2996L52.2985 74.3245Z" fill="black"/>
<path d="M46.3486 74.3245H45.8765V74.7967L46.3486 74.7969V74.3245Z" fill="black"/>
<path d="M57.1263 79.7634H52.9155V79.9994H57.1263V79.7634Z" fill="black"/>
<path d="M61.9462 79.5279V79.7639H58.8967V80H64.6795V79.5279H61.9462Z" fill="black"/>
<path d="M61.9462 79.5279H58.8967V79.7639H61.9462V79.5279Z" fill="black"/>
<path d="M57.1263 79.5279H52.9155V79.7634H57.1263V79.5279Z" fill="black"/>
<path d="M65.3329 79.5279H64.6815V80H65.3329V79.5279Z" fill="black"/>
<path d="M58.7108 79.7639V79.5279H57.2757V79.7639H57.1247V80H58.8949V79.7639H58.7108Z" fill="black"/>
<path d="M58.8933 79.5279H58.7092V79.7639H58.8933V79.5279Z" fill="black"/>
<path d="M57.2757 79.5279H57.1247V79.7639H57.2757V79.5279Z" fill="black"/>
<path d="M51.8282 79.7634H51.7952V79.9994H51.8282V79.7634Z" fill="black"/>
<path d="M52.9132 79.7634H52.2996V79.9994H52.9132V79.7634Z" fill="black"/>
<path d="M52.9132 79.5279H52.2996V79.7634H52.9132V79.5279Z" fill="black"/>
<path d="M51.8282 79.5279H51.7952V79.7634H51.8282V79.5279Z" fill="black"/>
<path d="M65.8008 79.5279H65.3287V80H65.8008V79.5279Z" fill="black"/>
<path d="M52.2996 79.7634H51.8264V79.9994H52.2996V79.7634Z" fill="black"/>
<path d="M52.2996 79.5279H51.8264V79.7634L52.2985 79.7639L52.2996 79.5279Z" fill="black"/>
<path d="M52.9155 68.0926V68.5647H57.1263V68.0926H52.9155Z" fill="black"/>
<path d="M64.6786 68.0926H61.9453V68.5647H64.6786V68.0926Z" fill="black"/>
<path d="M61.9453 68.0926H58.8967V68.5647H61.9453V68.0926Z" fill="black"/>
<path d="M65.3329 68.0926H64.6815V68.5647H65.3329V68.0926Z" fill="black"/>
<path d="M57.7714 68.0926H57.1247V68.5647L57.7719 68.5647L57.7714 68.0926Z" fill="black"/>
<path d="M58.7032 68.0926H58.2405V68.5647H58.7032V68.0926Z" fill="black"/>
<path d="M58.8933 68.0926H58.7092V68.5647H58.8933V68.0926Z" fill="black"/>
<path d="M52.9134 68.3287V68.0926H52.8709C52.8943 68.1693 52.9086 68.2486 52.9134 68.3287Z" fill="black"/>
<path d="M52.8709 68.5639H52.9039V68.3326C52.9025 68.4107 52.8914 68.4885 52.8709 68.5639Z" fill="black"/>
<path d="M51.7952 68.4274V68.5643H51.8282V68.4605L51.7952 68.4274Z" fill="black"/>
<path d="M52.9134 68.3287C52.9117 68.249 52.9004 68.1697 52.8802 68.0926H52.2996L52.2985 68.5647L52.8709 68.5639C52.8914 68.4885 52.9025 68.4107 52.9039 68.3326L52.9134 68.3287Z" fill="black"/>
<path d="M51.8282 68.0926H51.7952V68.4274L51.8282 68.4605V68.0926Z" fill="black"/>
<path d="M65.8008 68.0926H65.3287V68.5647H65.8008V68.0926Z" fill="black"/>
<path d="M58.2439 68.0926H57.7714L57.7719 68.5647H58.2439V68.0926Z" fill="black"/>
<path d="M52.2985 68.0921L52.1285 68.0926L52.1946 68.1634C52.2167 68.1854 52.2343 68.2115 52.2463 68.2402C52.2583 68.269 52.2644 68.2999 52.2644 68.331C52.2644 68.3622 52.2583 68.393 52.2463 68.4218C52.2343 68.4506 52.2167 68.4767 52.1946 68.4986C52.1492 68.5411 52.0893 68.5648 52.027 68.5648C51.9648 68.5648 51.9049 68.5411 51.8595 68.4986L51.8264 68.4609V68.5647H52.2985V68.0921Z" fill="black"/>
<path d="M51.8264 68.4609L51.8595 68.4986C51.9049 68.5411 51.9648 68.5648 52.027 68.5648C52.0893 68.5648 52.1492 68.5411 52.1946 68.4986C52.2167 68.4767 52.2343 68.4506 52.2463 68.4218C52.2583 68.393 52.2644 68.3622 52.2644 68.331C52.2644 68.2999 52.2583 68.269 52.2463 68.2402C52.2343 68.2115 52.2167 68.1854 52.1946 68.1634L52.1285 68.0926L51.8264 68.0923V68.4609Z" fill="black"/>
<path d="M81.2 49.4828H81.337C81.5501 48.7217 81.9306 48.0062 82.4785 47.3364C83.0569 46.6666 83.7418 46.0881 84.5333 45.6009C85.3552 45.1138 86.2532 44.7485 87.2273 44.5049C88.2319 44.2309 89.2669 44.1091 90.3323 44.1395V45.875C89.4191 45.7532 88.3689 45.8445 87.1817 46.149C86.0249 46.4534 84.9138 47.1232 83.8484 48.1584C83.4222 48.6151 83.0417 49.0566 82.7068 49.4828C82.4024 49.909 82.1437 50.381 81.9306 50.8985C81.7175 51.4161 81.5501 51.9946 81.4283 52.634C81.3065 53.2733 81.2304 54.0345 81.2 54.9174V67.7504H79.4648V44.2765H81.2V49.4828Z" fill="black"/>
<path d="M92.3232 56.2418V56.5158C92.3232 57.8859 92.5059 59.1951 92.8712 60.4434C93.2364 61.6916 93.7692 62.7877 94.4693 63.7315C95.1999 64.6753 96.0979 65.4213 97.1633 65.9693C98.2592 66.5173 99.5225 66.7913 100.953 66.7913C103.297 66.7913 105.154 66.1824 106.524 64.9646C107.894 63.7163 108.837 61.9961 109.355 59.804H111.09C110.573 62.5441 109.446 64.6449 107.711 66.1063C106.006 67.5677 103.739 68.2984 100.908 68.2984C99.1725 68.2984 97.6504 67.994 96.3414 67.385C95.0629 66.7457 93.9823 65.8932 93.0995 64.8276C92.2471 63.7315 91.6079 62.4528 91.1817 60.9914C90.7555 59.4995 90.5424 57.9011 90.5424 56.1961C90.5424 54.5521 90.7555 52.9841 91.1817 51.4922C91.6383 49.9699 92.308 48.6455 93.1908 47.519C94.0736 46.3621 95.1695 45.4487 96.4784 44.7789C97.8178 44.0786 99.3855 43.7285 101.182 43.7285C102.825 43.7285 104.271 44.033 105.519 44.6419C106.798 45.2508 107.863 46.0881 108.716 47.1537C109.568 48.1889 110.207 49.4067 110.634 50.8072C111.09 52.1773 111.318 53.6539 111.318 55.2371C111.318 55.3893 111.303 55.572 111.273 55.7851C111.273 55.9678 111.273 56.12 111.273 56.2418H92.3232ZM109.538 54.7347C109.477 53.456 109.264 52.2534 108.898 51.1269C108.533 49.9699 107.985 48.9652 107.255 48.1127C106.554 47.2298 105.687 46.5295 104.652 46.012C103.647 45.4944 102.491 45.2356 101.182 45.2356C99.7813 45.2356 98.5484 45.5096 97.483 46.0576C96.4175 46.5752 95.5195 47.2755 94.7889 48.1584C94.0584 49.0109 93.4952 50.0156 93.0995 51.1726C92.7037 52.3295 92.4602 53.5169 92.3689 54.7347H109.538Z" fill="black"/>
<path d="M115.316 44.2765H117.051V49.3001H117.143C117.447 48.4172 117.873 47.6408 118.421 46.971C119 46.2708 119.654 45.6771 120.385 45.1899C121.146 44.7028 121.968 44.3374 122.85 44.0939C123.733 43.8503 124.631 43.7285 125.545 43.7285C126.914 43.7285 128.071 43.896 129.015 44.2309C129.989 44.5658 130.78 45.0072 131.389 45.5553C131.998 46.1033 132.47 46.7274 132.805 47.4277C133.17 48.0975 133.429 48.7825 133.581 49.4828C133.733 50.1831 133.824 50.8681 133.855 51.5379C133.885 52.1773 133.901 52.7405 133.901 53.2277V67.7504H132.165V52.908C132.165 52.3295 132.12 51.5988 132.028 50.7159C131.937 49.8329 131.663 48.9957 131.207 48.2041C130.78 47.382 130.111 46.6818 129.197 46.1033C128.315 45.5248 127.082 45.2356 125.499 45.2356C124.159 45.2356 122.972 45.4792 121.937 45.9663C120.902 46.4534 120.019 47.1385 119.289 48.0214C118.558 48.8739 117.995 49.909 117.599 51.1269C117.234 52.3143 117.051 53.6235 117.051 55.0544V67.7504H115.316V44.2765Z" fill="black"/>
<path d="M137.898 56.0135C137.898 54.3389 138.127 52.771 138.583 51.3096C139.07 49.8177 139.771 48.5085 140.684 47.382C141.597 46.2555 142.723 45.3726 144.063 44.7332C145.402 44.0634 146.939 43.7285 148.675 43.7285C150.41 43.7285 151.947 44.0634 153.286 44.7332C154.626 45.3726 155.752 46.2555 156.665 47.382C157.579 48.5085 158.264 49.8177 158.72 51.3096C159.207 52.771 159.451 54.3389 159.451 56.0135C159.451 57.688 159.207 59.2712 158.72 60.763C158.264 62.2549 157.579 63.5641 156.665 64.6906C155.752 65.7866 154.626 66.6696 153.286 67.3394C151.947 67.9787 150.41 68.2984 148.675 68.2984C146.939 68.2984 145.402 67.9787 144.063 67.3394C142.723 66.6696 141.597 65.7866 140.684 64.6906C139.771 63.5641 139.07 62.2549 138.583 60.763C138.127 59.2712 137.898 57.688 137.898 56.0135ZM139.634 56.0135C139.634 57.414 139.831 58.7688 140.227 60.078C140.623 61.3567 141.201 62.4985 141.962 63.5032C142.723 64.5079 143.667 65.3147 144.793 65.9236C145.92 66.5021 147.213 66.7913 148.675 66.7913C150.136 66.7913 151.43 66.5021 152.556 65.9236C153.682 65.3147 154.626 64.5079 155.387 63.5032C156.148 62.4985 156.726 61.3567 157.122 60.078C157.518 58.7688 157.716 57.414 157.716 56.0135C157.716 54.613 157.518 53.2733 157.122 51.9946C156.726 50.6854 156.148 49.5285 155.387 48.5238C154.626 47.519 153.682 46.7274 152.556 46.149C151.43 45.5401 150.136 45.2356 148.675 45.2356C147.213 45.2356 145.92 45.5401 144.793 46.149C143.667 46.7274 142.723 47.519 141.962 48.5238C141.201 49.5285 140.623 50.6854 140.227 51.9946C139.831 53.2733 139.634 54.613 139.634 56.0135Z" fill="black"/>
<path d="M163.565 44.2765H165.3V49.0718H165.392C165.574 48.3411 165.894 47.656 166.351 47.0167C166.807 46.3469 167.355 45.7684 167.994 45.2813C168.664 44.7941 169.395 44.4136 170.186 44.1395C171.008 43.8655 171.86 43.7285 172.743 43.7285C173.87 43.7285 174.844 43.8807 175.666 44.1852C176.488 44.4592 177.188 44.8398 177.766 45.3269C178.344 45.7836 178.801 46.3164 179.136 46.9253C179.471 47.5038 179.699 48.0975 179.821 48.7064H179.912C180.612 47.0624 181.541 45.8293 182.697 45.0072C183.885 44.1548 185.437 43.7285 187.355 43.7285C188.42 43.7285 189.395 43.896 190.277 44.2309C191.191 44.5353 191.967 45.0225 192.606 45.6923C193.276 46.3316 193.793 47.1537 194.159 48.1584C194.524 49.1631 194.706 50.3505 194.706 51.7206V67.7504H192.971V51.6749C192.971 50.1831 192.743 49.0109 192.286 48.1584C191.83 47.3059 191.282 46.6666 190.643 46.2403C190.034 45.7836 189.41 45.5096 188.77 45.4183C188.162 45.2965 187.69 45.2356 187.355 45.2356C186.29 45.2356 185.3 45.4183 184.387 45.7836C183.504 46.149 182.728 46.697 182.058 47.4277C181.419 48.1584 180.917 49.0718 180.551 50.1678C180.186 51.2334 180.003 52.4665 180.003 53.867V67.7504H178.268V51.6749C178.268 50.2135 178.04 49.0566 177.583 48.2041C177.157 47.3211 176.64 46.6666 176.031 46.2403C175.453 45.8141 174.844 45.5401 174.204 45.4183C173.596 45.2965 173.109 45.2356 172.743 45.2356C171.921 45.2356 171.069 45.403 170.186 45.738C169.303 46.0729 168.497 46.5904 167.766 47.2907C167.036 47.991 166.442 48.8891 165.985 49.9852C165.529 51.0812 165.3 52.3752 165.3 53.867V67.7504H163.565V44.2765Z" fill="black"/>
<path d="M215.432 63.0922H215.341C215.067 63.7924 214.671 64.4622 214.154 65.1016C213.636 65.7105 212.997 66.2585 212.236 66.7457C211.505 67.2328 210.668 67.6134 209.725 67.8874C208.781 68.1614 207.746 68.2984 206.62 68.2984C204.123 68.2984 202.19 67.7656 200.82 66.7C199.451 65.604 198.766 63.9294 198.766 61.6764C198.766 60.3064 199.04 59.1951 199.588 58.3426C200.136 57.4597 200.82 56.7746 201.642 56.2875C202.495 55.7699 203.423 55.4045 204.428 55.1914C205.463 54.9783 206.452 54.8261 207.396 54.7347L210.09 54.5064C211.338 54.4151 212.312 54.278 213.012 54.0954C213.743 53.8822 214.291 53.6082 214.656 53.2733C215.021 52.908 215.25 52.4513 215.341 51.9033C215.432 51.3552 215.478 50.6702 215.478 49.8482C215.478 49.2088 215.356 48.6151 215.113 48.0671C214.869 47.519 214.489 47.0319 213.971 46.6057C213.454 46.1794 212.784 45.8445 211.962 45.6009C211.14 45.3574 210.135 45.2356 208.948 45.2356C206.848 45.2356 205.143 45.7532 203.834 46.7883C202.556 47.8235 201.855 49.3915 201.734 51.4922H199.999C200.12 48.9043 200.942 46.971 202.464 45.6923C204.017 44.3831 206.209 43.7285 209.04 43.7285C211.871 43.7285 213.925 44.2918 215.204 45.4183C216.513 46.5143 217.167 47.9605 217.167 49.7568V63.4118C217.167 63.7467 217.167 64.0817 217.167 64.4166C217.198 64.7515 217.259 65.0559 217.35 65.3299C217.441 65.604 217.594 65.8323 217.807 66.015C218.02 66.1672 218.324 66.2433 218.72 66.2433C219.024 66.2433 219.45 66.1976 219.998 66.1063V67.5677C219.542 67.6895 219.07 67.7504 218.583 67.7504C217.883 67.7504 217.32 67.6591 216.893 67.4764C216.498 67.2937 216.193 67.0501 215.98 66.7457C215.767 66.4412 215.615 66.0911 215.524 65.6953C215.463 65.269 215.432 64.8124 215.432 64.3252V63.0922ZM215.432 54.4151C215.006 54.9326 214.352 55.2828 213.469 55.4654C212.616 55.6481 211.658 55.7851 210.592 55.8765L207.67 56.1505C206.817 56.2418 205.965 56.3788 205.113 56.5615C204.26 56.7137 203.484 56.9877 202.784 57.3835C202.114 57.7793 201.566 58.3274 201.14 59.0276C200.714 59.6974 200.501 60.5804 200.501 61.6764C200.501 63.4118 201.049 64.7058 202.145 65.5583C203.241 66.3803 204.747 66.7913 206.665 66.7913C208.644 66.7913 210.212 66.4412 211.368 65.741C212.525 65.0103 213.408 64.1882 214.017 63.2748C214.626 62.331 215.006 61.4329 215.158 60.5804C215.341 59.6974 215.432 59.1037 215.432 58.7993V54.4151Z" fill="black"/>
</svg>
